<svg xmlns="http://www.w3.org/2000/svg" xmlns:xlink="http://www.w3.org/1999/xlink" width="12" height="12" viewBox="0 0 12 12">
  <defs>
    <clipPath id="clip-Artboard_4">
      <rect width="12" height="12"/>
    </clipPath>
  </defs>
  <g id="Artboard_4" data-name="Artboard – 4" clip-path="url(#clip-Artboard_4)">
    <path id="Path_39439" data-name="Path 39439" d="M109.472,104.376h-.022c-.173,0-.345,0-.518,0H97.71c.211.211.423.423.633.635l2.856,2.856a.624.624,0,0,1-.883.883l-.008-.008c-.187-.181-.37-.37-.554-.554q-.569-.569-1.139-1.137L97.3,105.735l-1.087-1.087c-.151-.151-.3-.3-.452-.452a.615.615,0,0,1-.172-.346v0a.643.643,0,0,1,.1-.448.548.548,0,0,1,.072-.087l.008-.008c.181-.187.37-.37.554-.554l1.137-1.137,1.317-1.317,1.087-1.087.452-.452a.624.624,0,0,1,.883.883l-.008.008c-.181.187-.37.37-.554.554l-2.451,2.452-.476.476h11.762a.623.623,0,1,1,0,1.247Z" transform="translate(152.375 6.938) rotate(135)" fill="#206aed" stroke="#206aed" stroke-width="0.6"/>
  </g>
</svg>
