<?xml version="1.0" encoding="UTF-8"?>
<svg width="40px" height="40px" viewBox="0 0 40 40" version="1.1" xmlns="http://www.w3.org/2000/svg" xmlns:xlink="http://www.w3.org/1999/xlink">
    <!-- Generator: Sketch 57.1 (83088) - https://sketch.com -->
    <title>Combined Shape</title>
    <desc>Created with Sketch.</desc>
    <g id="Navigation_Redesign_Desktop" stroke="none" stroke-width="1" fill="none" fill-rule="evenodd">
        <g id="08-Nav-search-results" transform="translate(-1361.000000, -208.000000)" fill="#FFFFFF" fill-rule="nonzero">
            <g id="Group-3">
                <g id="Search" transform="translate(327.000000, 192.000000)">
                    <path d="M1054,16 C1065.04569,16 1074,24.954305 1074,36 C1074,47.045695 1065.04569,56 1054,56 C1042.95431,56 1034,47.045695 1034,36 C1034,24.954305 1042.95431,16 1054,16 Z M1054,18 C1044.05887,18 1036,26.0588745 1036,36 C1036,45.9411255 1044.05887,54 1054,54 C1063.94113,54 1072,45.9411255 1072,36 C1072,26.0588745 1063.94113,18 1054,18 Z M1048.27614,28.3905243 L1054,34.1143819 L1059.72386,28.3905243 C1060.24456,27.8698252 1061.08878,27.8698252 1061.60948,28.3905243 C1062.13017,28.9112233 1062.13017,29.7554433 1061.60948,30.2761424 C1060.62691,31.2587086 1059.88998,31.9956333 1059.3987,32.4869164 C1058.61802,33.2676016 1057.44699,34.4386295 1055.88562,36 L1061.60948,41.7238576 C1062.13017,42.2445567 1062.13017,43.0887767 1061.60948,43.6094757 C1061.08878,44.1301748 1060.24456,44.1301748 1059.72386,43.6094757 L1054,37.8856181 L1048.27614,43.6094757 C1047.75544,44.1301748 1046.91122,44.1301748 1046.39052,43.6094757 C1045.86983,43.0887767 1045.86983,42.2445567 1046.39052,41.7238576 L1052.11438,36 L1046.39052,30.2761424 C1045.86983,29.7554433 1045.86983,28.9112233 1046.39052,28.3905243 C1046.91122,27.8698252 1047.75544,27.8698252 1048.27614,28.3905243 Z" id="Combined-Shape"></path>
                </g>
            </g>
        </g>
    </g>
</svg>