<svg xmlns="http://www.w3.org/2000/svg" xmlns:xlink="http://www.w3.org/1999/xlink"><defs><style>
    .sprite-symbol-usage {display: none;}
    .sprite-symbol-usage:target {display: inline;}
  </style><symbol viewBox="0 0 50 50" id="icon-VAT"><defs><path id="icon-VAT_a" d="M40.833 0c.69 0 1.25.56 1.25 1.25v26.063a42.938 42.938 0 01-6.115 22.08 1.248 1.248 0 01-.963.602 1.244 1.244 0 01-1.054-.425l-3.013-3.472-3.015 3.472c-.475.548-1.413.548-1.888 0l-3.015-3.472-3.014 3.472c-.475.548-1.413.548-1.888 0l-3.015-3.472-3.013 3.472c-.475.548-1.414.548-1.889 0l-3.013-3.472-3.015 3.472a1.25 1.25 0 01-2.017-1.462 40.43 40.43 0 005.76-20.795V1.25c0-.69.56-1.25 1.25-1.25zm-1.25 2.5H10.416v24.813c0 5.378-1.01 10.688-2.958 15.658.26.059.495.197.673.4l3.015 3.474 3.014-3.474c.475-.546 1.413-.546 1.888 0l3.013 3.474 3.015-3.474a1.254 1.254 0 011.889 0l3.015 3.474 3.013-3.474c.475-.546 1.413-.546 1.888 0l2.804 3.229a40.445 40.445 0 004.898-19.287V2.5zm-9.634 33.125a1.25 1.25 0 010 2.5H14.114a1.25 1.25 0 010-2.5zm-5.939-5.937a1.25 1.25 0 010 2.5h-7.917a1.25 1.25 0 010-2.5zm9.896 0a1.25 1.25 0 010 2.5h-3.958a1.25 1.25 0 010-2.5zM13.19 6.798a1.25 1.25 0 011.678.559l2.355 4.71 2.354-4.708a1.25 1.25 0 012.237 1.117L18.34 15.42a1.248 1.248 0 01-2.236.002l-3.473-6.945a1.25 1.25 0 01.558-1.679zm23.06-.131a1.25 1.25 0 010 2.5h-1.527v5.695a1.25 1.25 0 01-2.5 0V9.167h-1.528a1.25 1.25 0 010-2.5zm-10.902 0c.474 0 .907.267 1.119.692l3.471 6.944a1.25 1.25 0 01-2.236 1.117l-.5-1c-.04.005-.077.025-.119.025h-3.471c-.042 0-.079-.02-.119-.025l-.5 1.002a1.25 1.25 0 11-2.236-1.12l3.473-6.945a1.25 1.25 0 011.118-.69zm0 4.045l-.616 1.233h1.233l-.617-1.233z" /></defs><use fill-rule="evenodd" xlink:href="#icon-VAT_a" /></symbol><symbol viewBox="0 0 199 60" id="icon-appgallery"><g fill="none" fill-rule="evenodd"><path fill="#B6B6B6" fill-rule="nonzero" d="M184.43 0H11.05a21 21 0 00-3 .26 9.94 9.94 0 00-2.79.92 9.68 9.68 0 00-2.33 1.75A9.61 9.61 0 001.2 5.31a10 10 0 00-.91 2.8A19.36 19.36 0 000 11.05v37.43c.015.985.105 1.968.27 2.94a9.78 9.78 0 00.91 2.8 9.37 9.37 0 001.73 2.37 9.19 9.19 0 002.38 1.73 10 10 0 002.79.93 21 21 0 003 .26h176.29a20.46 20.46 0 002.94-.26 10.09 10.09 0 002.81-.93 9.14 9.14 0 002.37-1.73 9.66 9.66 0 001.74-2.37 9.78 9.78 0 00.91-2.8 20.6 20.6 0 00.27-2.94v-1.35V14v-2.95a20.73 20.73 0 00-.27-2.94 10 10 0 00-.91-2.8 9.91 9.91 0 00-1.74-2.38 9.62 9.62 0 00-2.37-1.73 10.07 10.07 0 00-2.81-.92 20.46 20.46 0 00-2.94-.28h-2.96" /><path fill="#333" fill-rule="nonzero" d="M12.41 58.24h-1.33A19.81 19.81 0 018.33 58a8.58 8.58 0 01-2.43-.81 7.82 7.82 0 01-2.05-1.49 7.79 7.79 0 01-1.5-2 8.53 8.53 0 01-.8-2.44 18.29 18.29 0 01-.25-2.75V12.4v-1.31a18.07 18.07 0 01.25-2.75 8.53 8.53 0 01.8-2.44 7.82 7.82 0 011.49-2.05A8 8 0 015.9 2.34a8.78 8.78 0 012.43-.8 19.56 19.56 0 012.75-.24H187.34a19.06 19.06 0 012.73.24 8.78 8.78 0 012.46.81 8 8 0 012 1.49 8.35 8.35 0 011.51 2.06 8.76 8.76 0 01.78 2.43c.155.916.242 1.842.26 2.77v37.36a19.93 19.93 0 01-.25 2.73 8.7 8.7 0 01-.8 2.45 8.17 8.17 0 01-1.49 2 8 8 0 01-2.06 1.5 8.72 8.72 0 01-2.45.81 19.42 19.42 0 01-2.74.24H12.41v.05z" /><g fill="#FFF" fill-rule="nonzero"><path d="M73.59 40.23h-6.88L65 44.84h-3l6.75-17.2h2.85l6.9 17.2h-3.19l-1.72-4.61zm-6-2.34h5.14L70.87 33c-.25-.68-.5-1.44-.74-2.26-.23.73-.47 1.47-.73 2.23l-1.81 4.92zM79.86 35.16c0-.95 0-2-.09-3.13h2.75c.104.535.178 1.076.22 1.62a5.18 5.18 0 013.91-1.86 4.42 4.42 0 014.14 2.69 8.13 8.13 0 01.67 3.52 8.8 8.8 0 01-.76 3.84 5.5 5.5 0 01-2.15 2.41 6.17 6.17 0 01-3.18.82 7.84 7.84 0 01-2.57-.44v5.29l-2.94.25V35.16zm7.71 6.55a5.82 5.82 0 00.9-3.52 5.23 5.23 0 00-.74-3.12 2.39 2.39 0 00-2-1 3.17 3.17 0 00-1.58.4 5.91 5.91 0 00-1.37 1.08v6.86a4.36 4.36 0 001 .34 5.63 5.63 0 001.15.13 3 3 0 002.6-1.21M93.34 35.16c0-.95 0-2-.1-3.13H96c.1.536.17 1.076.21 1.62a5.2 5.2 0 013.92-1.86 4.541 4.541 0 012.37.65 4.6 4.6 0 011.77 2 8.13 8.13 0 01.67 3.54 8.79 8.79 0 01-.77 3.84 5.48 5.48 0 01-2.17 2.45 6.17 6.17 0 01-3.18.82 8 8 0 01-2.58-.44v5.29l-2.93.25.03-15.03zm7.71 6.55a5.82 5.82 0 00.9-3.52 5.15 5.15 0 00-.75-3.12 2.36 2.36 0 00-2-1 3.17 3.17 0 00-1.58.4 6.18 6.18 0 00-1.38 1.08v6.86a4.36 4.36 0 001 .34 5.71 5.71 0 001.15.13 3.07 3.07 0 002.61-1.21M110.47 44a7.18 7.18 0 01-2.92-3 9.91 9.91 0 01-1-4.63 9.7 9.7 0 011.17-4.93 7.65 7.65 0 013.2-3 10 10 0 014.55-1c1.85 0 3.674.417 5.34 1.22l-.81 2.23a10.45 10.45 0 00-4.46-1.12 6.22 6.22 0 00-3.14.77 5.21 5.21 0 00-2.1 2.25 7.86 7.86 0 00-.75 3.58 8.56 8.56 0 00.58 3.27 4.79 4.79 0 001.87 2.25 5.49 5.49 0 003.13.84 9.88 9.88 0 001.71-.15 8.82 8.82 0 001.61-.41v-3.48h-4v-2.28h6.83v7.24a15.75 15.75 0 01-3.1 1.06 14.8 14.8 0 01-3.22.37 9.14 9.14 0 01-4.49-1M131.84 44.84a11.51 11.51 0 01-.2-1.7 5.58 5.58 0 01-1.76 1.37 5.21 5.21 0 01-2.45.57 4.64 4.64 0 01-2-.44 3.41 3.41 0 01-1.44-1.3 4 4 0 01-.53-2.13 3.65 3.65 0 011.34-3c.893-.74 2.383-1.11 4.47-1.11.78.001 1.558.058 2.33.17V37a3.24 3.24 0 00-.72-2.39 2.88 2.88 0 00-2.08-.7 7.83 7.83 0 00-2 .28 9.7 9.7 0 00-1.87.65l-.47-2.14c.668-.282 1.36-.5 2.07-.65a11.85 11.85 0 012.71-.3 7 7 0 012.82.51 3.67 3.67 0 011.79 1.74 7.15 7.15 0 01.65 3.31v5.09c0 .53 0 1.33.1 2.41l-2.76.03zm-1.76-2.38a4.61 4.61 0 001.5-1.09V39a18 18 0 00-2-.13 4 4 0 00-2.51.58 2 2 0 00-.69 1.59 1.81 1.81 0 00.5 1.41 2 2 0 001.37.45 4 4 0 001.79-.44M137.07 41.76V26.63l2.92-.24v14.85c-.039.407.06.815.28 1.16.227.241.55.366.88.34.26-.016.519-.06.77-.13l.35 2.1a5.33 5.33 0 01-1 .27 7.75 7.75 0 01-1.13.1c-2 0-3.05-1.11-3.05-3.32M144.37 41.76V26.63l2.92-.24v14.85c-.039.407.06.815.28 1.16.227.241.55.366.88.34.26-.016.519-.06.77-.13l.35 2.1a5.33 5.33 0 01-1 .27 7.63 7.63 0 01-1.13.1c-2 0-3-1.107-3-3.32M161.73 38.81h-8.39c.14 2.667 1.42 4 3.84 4a8 8 0 001.85-.22 10.35 10.35 0 001.81-.59l.64 2a10.9 10.9 0 01-4.83 1 7 7 0 01-3.45-.78 5 5 0 01-2.11-2.22 7.87 7.87 0 01-.7-3.49 8.23 8.23 0 01.75-3.65 5.4 5.4 0 012.08-2.34 5.83 5.83 0 013.08-.81 5.13 5.13 0 013 .85 5 5 0 011.81 2.26 8.07 8.07 0 01.59 3.12l.03.87zm-2.87-1.87a3.59 3.59 0 00-.77-2.29 2.36 2.36 0 00-1.84-.77 2.47 2.47 0 00-1.85.77 4.08 4.08 0 00-1 2.29h5.46zM164.09 35.25c0-.71 0-1.78-.09-3.22h2.74c0 .35.09.78.13 1.28.04.5.08.89.09 1.2a10.5 10.5 0 011-1.42 4 4 0 011.15-.94 3.08 3.08 0 011.5-.36 4.33 4.33 0 011.16.14l-.37 2.54a3.46 3.46 0 00-.95-.13 3.13 3.13 0 00-1.8.53 7.16 7.16 0 00-1.65 1.74v8.23h-2.92l.01-9.59zM173.54 50.08a5.72 5.72 0 01-1-.26l.53-2.13c.2.05.45.11.75.16.28.047.565.07.85.07 1.3 0 2.27-.83 2.92-2.5l.19-.47L173 32h3.14l2.38 7.22c.307.93.557 1.88.75 2.84.22-.93.48-1.86.78-2.78l2.42-7.28h3l-4.72 13a13.29 13.29 0 01-1.43 3 5.19 5.19 0 01-1.83 1.68 5.46 5.46 0 01-2.53.54 7.57 7.57 0 01-1.38-.11M61.98 10.9h5.29l-.15 1.28h-3.59v2.47h3.38v1.2h-3.38v2.74h3.78l-.13 1.29h-5.2zM70.91 15.3l-2.79-4.4h1.76l1.89 3.23 1.99-3.23h1.72l-2.77 4.34 2.99 4.64h-1.78l-2.14-3.54-2.17 3.54h-1.72zM76.85 10.9h2.42a4.15 4.15 0 012.6.7 2.36 2.36 0 01.91 2 2.91 2.91 0 01-.41 1.55 2.63 2.63 0 01-1.13 1 3.83 3.83 0 01-1.67.35 6.63 6.63 0 01-1.17-.12v3.46h-1.55V10.9zm3.88 4a1.59 1.59 0 00.5-1.27 1.36 1.36 0 00-.51-1.19 2.45 2.45 0 00-1.48-.37h-.84v3.19c.294.052.592.082.89.09a2.07 2.07 0 001.44-.45M84.31 10.9h1.55v7.65h3.72l-.14 1.33h-5.13zM91.93 19.44a3.8 3.8 0 01-1.51-1.59 5.24 5.24 0 01-.52-2.37 5.3 5.3 0 01.56-2.48 3.84 3.84 0 011.6-1.64 5 5 0 012.46-.58 4.56 4.56 0 012.34.56 3.67 3.67 0 011.49 1.58 5 5 0 01.52 2.35 5.34 5.34 0 01-.56 2.51 4 4 0 01-1.6 1.65 5 5 0 01-2.44.57 4.71 4.71 0 01-2.34-.56m4-1.1a2.62 2.62 0 001-1.2 4.45 4.45 0 00.32-1.76 4.85 4.85 0 00-.25-1.72 2.64 2.64 0 00-.91-1.21 2.71 2.71 0 00-1.65-.45 2.74 2.74 0 00-1.6.45 2.77 2.77 0 00-1 1.22 4.25 4.25 0 00-.33 1.69 4.54 4.54 0 00.31 1.74c.201.5.55.925 1 1.22a2.68 2.68 0 001.58.45 2.83 2.83 0 001.6-.43M100.6 10.9h2.81a3.71 3.71 0 012.32.62 2.06 2.06 0 01.79 1.75 2.65 2.65 0 01-.28 1.25 2.77 2.77 0 01-.71.89 3 3 0 01-.87.51l2.76 4h-1.79l-2.34-3.56h-1.14v3.56h-1.55V10.9zm2.4 4.25a2.16 2.16 0 001-.22 1.61 1.61 0 00.67-.62 1.79 1.79 0 00.24-.93 1.16 1.16 0 00-.42-1 2.1 2.1 0 00-1.25-.31h-1.12v3.07l.88.01zM108.65 10.9h5.29l-.15 1.28h-3.59v2.47h3.39v1.2h-3.39v2.74h3.78l-.13 1.29h-5.2zM119.69 10.9h1.55v8.98h-1.55zM125.34 12.2h-2.78l.13-1.3h6.99l-.14 1.3h-2.65v7.68h-1.55zM136.41 19.44a3.8 3.8 0 01-1.51-1.59 5.11 5.11 0 01-.52-2.37 5.3 5.3 0 01.55-2.48 3.89 3.89 0 011.6-1.64 5 5 0 012.47-.58 4.61 4.61 0 012.34.56 3.67 3.67 0 011.49 1.58 5.15 5.15 0 01.51 2.35 5.22 5.22 0 01-.56 2.51 3.92 3.92 0 01-1.6 1.65 5 5 0 01-2.44.57 4.65 4.65 0 01-2.33-.56m4-1.1a2.64 2.64 0 001-1.2 4.64 4.64 0 00.32-1.76 4.85 4.85 0 00-.28-1.72 2.48 2.48 0 00-2.54-1.66 2.65 2.65 0 00-2.58 1.67 4.25 4.25 0 00-.33 1.69 4.54 4.54 0 00.31 1.74c.184.494.516.92.95 1.22a2.66 2.66 0 001.58.45 2.77 2.77 0 001.58-.44M145.07 10.9h1.78l4.44 7v-7h1.44v9H151l-4.5-7.07c.04.8.06 1.51.06 2.13v4.94h-1.44l-.05-9z" /></g><path fill="#CE0E2D" d="M40.22 10.83H23.66C15.85 10.83 13 13.68 13 21.48V38c0 7.8 2.85 10.66 10.66 10.66h16.55C48 48.7 50.87 45.84 50.87 38V21.48c0-7.8-2.85-10.65-10.65-10.65" /><path fill="#FFF" fill-rule="nonzero" d="M20.5 29.77h1v4.95h-1v-2h-2.27v2h-1v-4.95h1v2h2.27v-2zm5.66 2.83c0 .81-.4 1.24-1.13 1.24-.73 0-1.13-.45-1.13-1.27v-2.8h-1v2.83a2 2 0 002.1 2.19 2 2 0 002.14-2.23v-2.79h-1l.02 2.83zm11.61.57l-1.12-3.4h-.83l-1.12 3.4-1.09-3.4h-1.07l1.72 4.95h.83l1.13-3.25 1.13 3.25h.84l1.72-4.95h-1l-1.14 3.4zm3.94-.58h1.82v-.9h-1.82v-1h2.65v-.9h-3.64v4.95h3.74v-.91h-2.75v-1.24zm3.94 2.12h1v-4.94h-1v4.94zm-16.5-1l-.45 1h-1l2.18-4.95h.89l2.17 4.95h-1l-.45-1h-2.34zm.37-.89H31L30.28 31l-.76 1.82zM31.94 23.46a6.31 6.31 0 01-6.31-6.3h.89a5.42 5.42 0 0010.83 0h.89a6.31 6.31 0 01-6.3 6.3" /></g></symbol><symbol viewBox="0 0 40 34" id="icon-appointment"><defs><path id="icon-appointment_a" d="M11.75.125c.621 0 1.125.504 1.125 1.125v3.375h14.25V1.25c0-.621.504-1.125 1.125-1.125H32c.621 0 1.125.504 1.125 1.125v3.375H38c.621 0 1.125.504 1.125 1.125v24.755a3.374 3.374 0 01-3.37 3.37H4.244a3.374 3.374 0 01-3.37-3.37V5.75c0-.621.504-1.125 1.125-1.125h4.875V1.25C6.875.629 7.379.125 8 .125zm25.125 14.25H3.125v16.13c0 .617.502 1.12 1.12 1.12h31.51c.617 0 1.12-.503 1.12-1.12v-16.13zm-7.84 4.169c1.458-.724 3.138-.488 4.283.595.868.822 1.308 1.911 1.308 3.239a5.141 5.141 0 01-.852 2.79 11.964 11.964 0 01-2.322 2.67 7.59 7.59 0 01-1.842 1.21c-.365.162-.82.327-1.352.327-.102 0-.204-.006-.312-.02-.77-.097-1.378-.442-1.771-.691-1.23-.785-2.286-1.818-3.225-3.155-.63-.901-.974-1.78-1.053-2.689-.096-1.108.132-2.103.682-2.954.8-1.3 2.361-1.969 3.88-1.662a4.17 4.17 0 011.8.83c.242-.19.499-.352.776-.49zm2.735 2.23c-.468-.443-1.113-.518-1.733-.218-.31.158-.582.377-.795.653l-.102.119c-.043.05-.112.12-.163.162a1.181 1.181 0 01-.543.241 1.12 1.12 0 01-1.022-.357l-.135-.154c-.06-.068-.118-.137-.181-.201a1.992 1.992 0 00-1.082-.61 1.439 1.439 0 00-1.53.656c-.294.454-.4.944-.346 1.558.046.514.253 1.02.657 1.595.765 1.09 1.612 1.926 2.589 2.55.339.215.598.324.843.355.078.017.23-.027.453-.124a5.424 5.424 0 001.291-.855 9.73 9.73 0 001.913-2.199c.32-.482.486-1.023.492-1.581 0-.69-.192-1.2-.606-1.59zM6.875 6.875h-3.75v5.25h33.75v-5.25h-3.75c0 1.655-1.346 3-3 3s-3-1.345-3-3h-14.25c0 1.655-1.345 3-3 3s-3-1.345-3-3zm24-4.5h-1.5v4.5c0 .412.337.75.75.75s.75-.338.75-.75v-4.5zm-20.25 0h-1.5v4.5c0 .412.338.75.75.75s.75-.338.75-.75v-4.5z" /></defs><use fill-rule="evenodd" xlink:href="#icon-appointment_a" /></symbol><symbol viewBox="0 0 110 32" id="icon-appstore"><g fill="none" fill-rule="evenodd"><rect width="108.268" height="30.764" x=".5" y=".5" fill="#333" stroke="#979797" rx="6" /><path fill="#FFF" d="M20.131 10.323c2.06 0 3.378 1.993 3.378 1.993s-2.01 1.09-2.01 3.458c0 2.811 2.524 3.629 2.524 3.629s-1.992 4.728-4.23 4.728c-1.257 0-1.342-.724-3.013-.724-1.452 0-1.942.724-3.048.724-2.111 0-4.838-4.609-4.838-8.357 0-3.892 2.76-5.451 4.492-5.451 1.52 0 2.152.894 3.377.894 1.03 0 1.84-.894 3.368-.894zm-.354-3.97c.304 1.908-1.427 4.268-3.495 4.191-.304-2.428 1.925-4.063 3.495-4.191z" /><text fill="#FFF" font-family="HelveticaNeue-Bold, Helvetica Neue" font-size="14" font-weight="bold"><tspan x="31" y="21">App Store</tspan></text></g></symbol><symbol viewBox="0 0 14 12" id="icon-arrow"><defs><path id="icon-arrow_a" d="M13.737 5.694a.797.797 0 00-.172-.26L9.065.935a.798.798 0 10-1.13 1.13L11.068 5.2H.999a.798.798 0 100 1.598h10.07L7.934 9.935a.798.798 0 101.13 1.13l4.5-4.499a.776.776 0 00.173-.26.786.786 0 000-.612" /></defs><use fill="#C724B1" fill-rule="evenodd" xlink:href="#icon-arrow_a" /></symbol><symbol viewBox="0 0 14 12" id="icon-arrow-w"><defs><path id="icon-arrow-w_a" d="M13.737 5.694a.797.797 0 00-.172-.26L9.065.935a.798.798 0 10-1.13 1.13L11.068 5.2H.999a.798.798 0 100 1.598h10.07L7.934 9.935a.798.798 0 101.13 1.13l4.5-4.499a.776.776 0 00.173-.26.786.786 0 000-.612" /></defs><g fill="none" fill-rule="evenodd"><use fill="#000" xlink:href="#icon-arrow-w_a" /><g fill="#FFF" mask="url(#icon-arrow-w_b)"><path d="M-9-10h32v32H-9z" /></g></g></symbol><mask id="icon-arrow-w_b" fill="#fff"><use xlink:href="#icon-arrow-w_a" /></mask><symbol viewBox="0 0 50 50" id="icon-billing-payment"><defs><path id="icon-billing-payment_a" d="M39.35 0a4.224 4.224 0 014.218 4.218v41.564A4.224 4.224 0 0139.349 50H10.651a4.223 4.223 0 01-4.218-4.218V11.147c0-.029.013-.054.015-.08.006-.11.028-.217.065-.32.013-.042.023-.08.041-.119.06-.133.137-.258.244-.366L16.694.367c.107-.107.234-.184.365-.245.04-.017.08-.029.12-.044a1.21 1.21 0 01.319-.061c.028-.002.053-.017.08-.017h21.771zm0 2.5H18.827v8.647c0 .69-.56 1.25-1.25 1.25H8.933v33.385c0 .946.77 1.718 1.718 1.718h28.698a1.72 1.72 0 001.719-1.718V4.218A1.72 1.72 0 0039.349 2.5zm-6.643 18.356c.737 0 1.403.09 2.002.272a4.295 4.295 0 011.531.808c.424.355.75.793.98 1.312.23.518.344 1.115.344 1.788 0 .665-.107 1.257-.322 1.773-.212.522-.53.96-.953 1.319-.425.361-.952.636-1.58.825-.629.193-1.36.286-2.19.286-.897 0-1.54-.018-1.93-.053a28.359 28.359 0 01-.454-.043l-.125-.015a.615.615 0 01-.058-.009v-7.088c0-.175.023-.325.072-.452a.937.937 0 01.185-.315.733.733 0 01.26-.188c.098-.045.2-.075.303-.09.15-.032.37-.062.66-.088.288-.03.712-.042 1.275-.042zm-5.13.117c.365 0 .623.078.778.232.155.155.232.378.232.671 0 .214-.032.409-.095.589a2.204 2.204 0 01-.155.361h-4.014v1.27h3.1c.364 0 .624.079.777.232.155.155.232.378.232.672a1.7 1.7 0 01-.095.586c-.064.18-.114.3-.155.364h-3.859v1.32h4.204v1.85H22.34V22.1c0-.751.392-1.128 1.175-1.128zm-10.628-.212a1.7 1.7 0 01.399.046c.13.034.245.07.348.114.103.043.187.085.25.125.063.04.102.063.118.07.12.2.276.51.469.94.195.426.406.908.636 1.441a123.804 123.804 0 011.397 3.35c.209.527.393.993.552 1.402.157.407.268.697.332.87h-2.185a91.595 91.595 0 01-.285-.765c-.104-.28-.23-.61-.38-.99h-3.456c-.126.331-.24.636-.338.913a38.3 38.3 0 01-.315.842h-2.055c.167-.442.369-.959.607-1.549a181.963 181.963 0 011.62-3.901c.296-.689.588-1.354.873-1.994.15-.341.335-.578.552-.715.218-.131.505-.2.861-.2zm15.985 1.875c-.31 0-.549.007-.714.018a2.017 2.017 0 00-.285.03v4.679a7.242 7.242 0 00.904.048 4.03 4.03 0 001.08-.137c.325-.091.603-.235.836-.426.234-.197.414-.444.542-.744.125-.301.19-.656.19-1.068a2.89 2.89 0 00-.155-.963 2.022 2.022 0 00-1.265-1.259 3.268 3.268 0 00-1.133-.178zm-16.044.286c-.049.11-.11.265-.19.468-.08.202-.167.429-.262.677-.095.25-.194.505-.297.765-.103.262-.198.507-.285.737h2.067c-.078-.212-.17-.452-.273-.718a95.08 95.08 0 01-.297-.772c-.095-.248-.185-.48-.269-.689a8.938 8.938 0 00-.194-.468zm-.562-18.654l-5.629 5.629h5.629V4.268z" /></defs><use fill-rule="evenodd" xlink:href="#icon-billing-payment_a" /></symbol><symbol viewBox="0 0 60 60" id="icon-bulb"><g fill="#FFF" fill-rule="nonzero"><path d="M40 15c-3.6-3-8.4-4.2-13.1-3.3-6.1 1.2-11.1 6.1-12.3 12.3-.9 4.6.2 9.2 3.1 12.9 1.5 1.9 2.3 4.1 2.3 6.2v.2c0 .4.2.8.4 1-.3.6-.4 1.2-.4 1.8 0 1.1.4 2.1 1.1 2.9-.7.8-1.1 1.8-1.1 2.9 0 2.4 1.9 4.3 4.3 4.3h11.4c2.4 0 4.3-1.9 4.3-4.3 0-1.1-.4-2.1-1.1-2.9.7-.8 1.1-1.8 1.1-2.9 0-.7-.2-1.3-.4-1.8.3-.3.4-.6.4-1V43c0-2.2.8-4.3 2.3-6.1 2.3-2.8 3.4-6.2 3.4-9.8 0-4.7-2.1-9.1-5.7-12.1zM24.4 30.4c0-.5.4-.8.8-.8s.8.4.8.8-.4.8-.8.8-.8-.4-.8-.8zm10.3.8c-.5 0-.8-.4-.8-.8s.4-.8.8-.8c.5 0 .8.4.8.8s-.3.8-.8.8zM29 41.9v-7.8h2v7.8h-2zm6.7 2.9c.8 0 1.4.6 1.4 1.4 0 .8-.6 1.4-1.4 1.4H24.3c-.8 0-1.4-.6-1.4-1.4 0-.8.6-1.4 1.4-1.4h11.4zm0 8.5H24.3c-.8 0-1.4-.6-1.4-1.4 0-.8.6-1.4 1.4-1.4h11.4c.8 0 1.4.6 1.4 1.4 0 .8-.6 1.4-1.4 1.4zM40 35.2c-1.6 2-2.6 4.3-2.8 6.7h-3.4v-7.8h.8c2 0 3.7-1.7 3.7-3.7s-1.7-3.7-3.7-3.7-3.6 1.6-3.6 3.7v.8h-2v-.8c0-2-1.7-3.7-3.7-3.7s-3.7 1.7-3.7 3.7 1.7 3.7 3.7 3.7h.8v7.8h-3.4c-.2-2.4-1.2-4.7-2.9-6.8-2.4-3-3.2-6.7-2.5-10.5 1-5 5-9 10-10 3.9-.8 7.8.2 10.8 2.7 3 2.5 4.7 6.1 4.7 9.9.1 2.9-.9 5.7-2.8 8zM32.9 57.1h-5.7c-.8 0-1.4.6-1.4 1.4 0 .8.6 1.4 1.4 1.4h5.7c.8 0 1.4-.6 1.4-1.4 0-.7-.7-1.4-1.4-1.4zM30 8.6c.8 0 1.4-.6 1.4-1.4V1.4C31.4.6 30.8 0 30 0c-.8 0-1.4.6-1.4 1.4v5.7c0 .8.6 1.5 1.4 1.5zM7.1 25.4H1.4c-.8 0-1.4.6-1.4 1.4 0 .8.6 1.4 1.4 1.4h5.7c.8 0 1.4-.6 1.4-1.4 0-.8-.6-1.4-1.4-1.4zM14.1 11.8l-4-4c-.6-.6-1.5-.6-2 0s-.6 1.5 0 2l4 4c.3.3.6.4 1 .4s.7-.1 1-.4c.6-.5.6-1.4 0-2zM52 7.8c-.6-.6-1.5-.6-2 0l-4 4c-.6.6-.6 1.5 0 2 .3.3.6.4 1 .4s.7-.1 1-.4l4-4c.5-.5.5-1.4 0-2zM58.6 25.4h-5.7c-.8 0-1.4.6-1.4 1.4 0 .8.6 1.4 1.4 1.4h5.7c.8 0 1.4-.6 1.4-1.4 0-.8-.6-1.4-1.4-1.4z" /></g></symbol><symbol viewBox="0 0 13 12" id="icon-cart"><defs><path id="icon-cart_a" d="M6.5 11.833a.835.835 0 010 1.668.835.835 0 010-1.668zm4.858 0a.835.835 0 010 1.668.835.835 0 010-1.668zM2 2.25h2c.17 0 .32.103.384.256l.02.06.588 2.35h8.341a.417.417 0 01.415.45l-.01.068-1.334 5.334a.417.417 0 01-.341.31l-.063.005H6a.417.417 0 01-.384-.256l-.02-.06-1.921-7.684H2a.417.417 0 01-.062-.828L2 2.25h2-2zm10.8 3.5H5.2l1.125 4.5h5.35l1.124-4.5z" /></defs><use fill="#FFF" fill-rule="evenodd" stroke="#FFF" stroke-width=".25" transform="translate(-1 -2)" xlink:href="#icon-cart_a" /></symbol><symbol viewBox="0 0 33 31" id="icon-cart2"><path fill="#FFF" fill-rule="evenodd" d="M15.125 27.657a.96.96 0 01-.958.958.96.96 0 01-.959-.958.96.96 0 01.959-.959.96.96 0 01.958.959m10.222 0a.96.96 0 01.959-.959.96.96 0 01.958.959.96.96 0 01-.958.958.96.96 0 01-.959-.958zm.822-2.875H10.014a1.278 1.278 0 010-2.556H9.48 29.5c.047 0 .088-.018.133-.024.077-.01.152-.02.22-.047.04-.016.069-.041.103-.062a.895.895 0 00.192-.128c.034-.032.059-.07.088-.106a.937.937 0 00.116-.173c.025-.046.036-.095.051-.145.013-.04.035-.079.043-.122L33 6.724a.956.956 0 00-.946-1.11l-23.664.001.409 1.917h22.131l-2.249 12.777H11.597L7.45 1.336A.958.958 0 006.5.504H1.389a.959.959 0 000 1.917h4.273L9.63 20.309c-1.763 0-2.812 1.433-2.812 3.195a3.197 3.197 0 003.195 3.194h1.455a2.846 2.846 0 00-.177.959 2.88 2.88 0 002.875 2.875 2.88 2.88 0 002.875-2.875c0-.338-.07-.657-.178-.959h6.744a2.846 2.846 0 00-.177.959 2.88 2.88 0 002.875 2.875 2.88 2.88 0 002.875-2.875 2.88 2.88 0 00-2.875-2.875h-.137z" /></symbol><symbol viewBox="0 0 18 14" id="icon-check"><path fill="#FFF" fill-rule="evenodd" d="M16.192.32l-9.84 10.138-4.544-4.684a1.039 1.039 0 00-1.498 0 1.114 1.114 0 000 1.542l5.294 5.455c.206.213.478.32.748.32.272 0 .542-.107.75-.32L17.69 1.863a1.117 1.117 0 000-1.544 1.039 1.039 0 00-1.498 0" /></symbol><symbol viewBox="0 0 50 50" id="icon-connectivity"><defs><path id="icon-connectivity_a" d="M25 7.057a4.223 4.223 0 014.218 4.219 4.216 4.216 0 01-2.725 3.933l12.054 33.745c.015.04.008.08.018.12a1.322 1.322 0 01.023.487 1.316 1.316 0 01-.167.457c-.023.034-.028.076-.053.11-.02.026-.051.034-.071.06-.079.09-.172.16-.275.224-.057.035-.105.075-.165.1-.025.012-.042.032-.067.04-.138.049-.28.074-.42.074h-.002l-.041-.007a1.293 1.293 0 01-.339-.055c-.035-.01-.065-.035-.1-.048a1.341 1.341 0 01-.251-.132l-.019-.012L25 41.612l-11.618 8.76c-.045.035-.099.052-.15.079-.04.023-.077.046-.122.065a1.196 1.196 0 01-.345.088c-.028.003-.057.012-.088.013-.014.002-.029.009-.045.009-.052 0-.099-.029-.152-.035-.09-.012-.18-.007-.27-.039-.025-.008-.042-.028-.067-.04-.06-.025-.108-.065-.165-.1a1.203 1.203 0 01-.275-.225c-.02-.025-.051-.033-.071-.06-.025-.033-.03-.075-.054-.11a1.316 1.316 0 01-.166-.456c-.012-.077-.015-.152-.012-.232.003-.087.015-.17.035-.255.01-.04.003-.08.018-.12l12.054-33.745a4.216 4.216 0 01-2.725-3.933A4.223 4.223 0 0125 7.057zM31.515 36.7l-4.44 3.348 7.713 5.817-3.273-9.165zm-13.03 0l-3.273 9.165 7.713-5.817-4.44-3.348zM25 31.841l-4.403 3.32L25 38.48l4.403-3.32L25 31.84zM21.233 29l-1.246 3.49 2.938-2.215L21.233 29zm7.534 0l-1.692 1.275 2.938 2.215L28.767 29zM25 18.456l-2.907 8.14c.095.04.194.07.28.135L25 28.71l2.627-1.98c.086-.067.185-.095.28-.135L25 18.456zM40.695.92a1.252 1.252 0 011.763.149c2.31 2.735 3.584 6.36 3.584 10.206 0 3.847-1.274 7.474-3.584 10.209a1.25 1.25 0 01-1.911-1.614c1.931-2.285 2.995-5.336 2.995-8.595 0-3.256-1.064-6.308-2.995-8.593A1.253 1.253 0 0140.695.92zM7.543 1.07a1.25 1.25 0 111.91 1.613C7.522 4.967 6.458 8.02 6.458 11.276c0 3.258 1.063 6.31 2.995 8.595a1.25 1.25 0 11-1.91 1.613c-2.312-2.735-3.585-6.362-3.585-10.208 0-3.847 1.273-7.472 3.585-10.207zm28.862 2.984a1.253 1.253 0 011.761.149c1.604 1.902 2.487 4.413 2.487 7.075 0 2.66-.883 5.173-2.487 7.073a1.255 1.255 0 01-.956.444 1.252 1.252 0 01-.955-2.057c1.225-1.45 1.898-3.389 1.898-5.46 0-2.073-.673-4.012-1.898-5.462a1.252 1.252 0 01.15-1.762zm-24.57.15a1.248 1.248 0 111.91 1.612c-1.224 1.45-1.897 3.39-1.897 5.461 0 2.072.673 4.012 1.896 5.46a1.25 1.25 0 11-1.91 1.614c-1.603-1.9-2.486-4.412-2.486-7.074 0-2.661.883-5.173 2.486-7.073zM32.11 7.187a1.251 1.251 0 011.762.148c.896 1.064 1.391 2.464 1.391 3.94 0 1.479-.495 2.877-1.391 3.942a1.255 1.255 0 01-.957.443 1.253 1.253 0 01-.955-2.057c.518-.613.803-1.44.803-2.328 0-.886-.285-1.713-.803-2.326a1.253 1.253 0 01.15-1.762zm-15.983.148a1.25 1.25 0 011.91 1.613c-.516.614-.801 1.44-.801 2.329 0 .886.285 1.713.801 2.326a1.25 1.25 0 01-1.91 1.614c-.896-1.064-1.391-2.464-1.391-3.94 0-1.479.495-2.877 1.391-3.942zM25 9.557a1.72 1.72 0 000 3.439 1.72 1.72 0 000-3.438z" /></defs><use fill-rule="evenodd" xlink:href="#icon-connectivity_a" /></symbol><symbol viewBox="0 0 32 26" id="icon-contract"><defs><path id="icon-contract_a" d="M21.75 5.25c.017 0 .031.008.047.01a.703.703 0 01.193.038l.071.024a.73.73 0 01.219.148l5 5a.709.709 0 01.147.219c.01.024.017.047.025.071a.71.71 0 01.038.193l.01.047v4.646a.75.75 0 01-1.5 0V11.75h-4.25A.75.75 0 0121 11V6.75H10.75a.752.752 0 00-.75.75v21c0 .413.337.75.75.75h14.5c.413 0 .75-.337.75-.75a.75.75 0 011.5 0c0 1.24-1.01 2.25-2.25 2.25h-14.5c-1.24 0-2.25-1.01-2.25-2.25v-21c0-1.24 1.01-2.25 2.25-2.25zm-3.53 18.22a.75.75 0 011.06 0l.97.97.97-.97a.75.75 0 111.06 1.06l-.97.97.97.97a.75.75 0 11-1.06 1.06l-.97-.97-.97.97a.75.75 0 11-1.061-1.061l.97-.97-.97-.968a.75.75 0 010-1.061zM36.068 9.577c.198 0 .39.08.53.22l2.475 2.476a.749.749 0 010 1.06L38.007 14.4a2.714 2.714 0 01-.448 3.275l-3.535 3.536a.746.746 0 01-1.062 0 .749.749 0 010-1.06l1.857-1.858 1.68-1.678c.235-.237.365-.55.365-.884 0-.055-.024-.104-.03-.157l-1.132 1.129-7.942 7.944c-.005.003-.009.004-.01.006a.735.735 0 01-.297.17c-.012.003-.02.015-.034.019l-.669.176-2.69.708a.753.753 0 01-.721-.195.753.753 0 01-.195-.721l.885-3.36c.003-.012.015-.021.02-.035a.748.748 0 01.168-.293l.006-.01L35.54 9.797c.14-.14.33-.22.53-.22zM25.146 23.095l-.224.853.853-.224-.628-.63zM36.07 11.388L25.813 21.642l.707.707.709.707 10.253-10.253-1.414-1.415zM20.25 20.25a.75.75 0 010 1.5h-7a.75.75 0 010-1.5zm-1-3a.75.75 0 010 1.5h-6a.75.75 0 010-1.5zm3-3a.75.75 0 010 1.5h-9a.75.75 0 010-1.5zm-6-3a.75.75 0 010 1.5h-3a.75.75 0 010-1.5zm21.409-2.16a.75.75 0 011.06 0l1.062 1.06a.749.749 0 11-1.061 1.06l-1.061-1.06a.75.75 0 010-1.06zM22.5 7.81v2.439h2.439L22.5 7.811z" /></defs><g fill="none" fill-rule="evenodd" transform="translate(-8 -5)"><use fill="#000" xlink:href="#icon-contract_a" /><g fill="#333" mask="url(#icon-contract_b)"><path d="M0 0h40v36H0z" /></g></g></symbol><mask id="icon-contract_b" fill="#fff"><use xlink:href="#icon-contract_a" /></mask><symbol viewBox="0 0 54 58" id="icon-devices"><defs><path id="icon-devices_a" d="M39.222.667c2.756 0 5 2.244 5 5v12.222a1.667 1.667 0 01-3.333 0V5.667A1.67 1.67 0 0039.222 4H5.89a1.67 1.67 0 00-1.667 1.667v46.666A1.67 1.67 0 005.89 54h20.74a1.667 1.667 0 010 3.333H5.889c-2.756 0-5-2.244-5-5V5.667c0-2.756 2.244-5 5-5zm8.89 22.222c2.755 0 5 2.244 5 5v24.444c0 2.756-2.245 5-5 5H36.628c-2.756 0-5-2.244-5-5V27.89c0-2.756 2.244-5 5-5zm0 3.333H36.628a1.67 1.67 0 00-1.667 1.667v24.444A1.67 1.67 0 0036.63 54H48.11a1.67 1.67 0 001.667-1.667V27.89a1.67 1.67 0 00-1.667-1.667zm-26.735 21.6c.622-.623 1.733-.623 2.356 0a1.665 1.665 0 01-1.178 2.844c-.445 0-.867-.178-1.178-.487a1.665 1.665 0 010-2.358zm20.357-.356a1.57 1.57 0 011.266 0c.2.089.4.2.556.355a1.665 1.665 0 010 2.358c-.333.309-.733.487-1.178.487-.224 0-.444-.045-.644-.134-.2-.088-.378-.2-.536-.353a1.488 1.488 0 01-.375-.535 1.992 1.992 0 01-.111-.645c0-.444.177-.867.486-1.178.136-.155.336-.266.536-.355zm3.17-17.91a1.667 1.667 0 010 3.333h-5.067a1.667 1.667 0 010-3.333zM26.898 7.333a1.667 1.667 0 010 3.334h-8.684a1.667 1.667 0 010-3.334z" /></defs><use fill-rule="evenodd" xlink:href="#icon-devices_a" /></symbol><symbol viewBox="0 0 32 32" id="icon-facebook"><defs></defs><path fill="url(#icon-facebook_a)" fill-rule="evenodd" d="M104 0c8.837 0 16 7.163 16 16s-7.163 16-16 16-16-7.163-16-16 7.163-16 16-16zm3.839 7.467h-2.404c-2.886 0-3.902 1.455-3.902 3.902v1.801h-1.8v3h1.8v8.704h3.601V16.17h2.403l.319-3h-2.722l.004-1.5c0-.783.075-1.202 1.199-1.202h1.502v-3z" transform="translate(-88)" /></symbol><linearGradient id="icon-facebook_a" x1="80.403%" x2="0%" y1="50%" y2="49.999%"><stop offset="0%" stop-color="#535BC2" /><stop offset="100%" stop-color="#3E6FC5" /></linearGradient><symbol viewBox="0 0 40 40" id="icon-fixed-services"><defs><path id="icon-fixed-services_a" d="M26.28 8.136a1.12 1.12 0 011.44 0l18 15a1.125 1.125 0 01-.72 1.989h-3.375V45c0 .621-.504 1.125-1.125 1.125h-27A1.125 1.125 0 0112.375 45V25.125H9a1.125 1.125 0 01-.72-1.989zm.72 2.33L12.107 22.875H13.5c.621 0 1.125.504 1.125 1.125v19.875h24.75V24c0-.621.504-1.125 1.125-1.125h1.394L27 10.465zm1.645 14.525c2.178-1.073 4.584-.74 6.285.867 1.29 1.223 1.944 2.857 1.944 4.854a7.783 7.783 0 01-1.295 4.238 19.103 19.103 0 01-3.732 4.29 11.886 11.886 0 01-2.9 1.913c-.524.23-1.184.472-1.939.472-.138 0-.279-.009-.423-.027-1.111-.138-1.995-.629-2.641-1.041-1.965-1.254-3.654-2.906-5.163-5.055-.97-1.388-1.5-2.735-1.622-4.119-.147-1.674.197-3.171 1.02-4.449 1.172-1.914 3.46-2.907 5.687-2.444a6.218 6.218 0 013.14 1.642 6.957 6.957 0 011.639-1.14zm4.737 2.503c-1-.947-2.429-1.13-3.735-.488a4.716 4.716 0 00-1.59 1.296l-.126.154c-.087.104-.227.23-.345.296-.07.039-.186.09-.264.113a1.13 1.13 0 01-1.164-.332l-.186-.212c-.12-.138-.239-.279-.37-.409a4.035 4.035 0 00-2.182-1.215 3.153 3.153 0 00-3.336 1.434c-.568.882-.787 1.873-.684 3.055.089.995.476 1.956 1.223 3.026 1.335 1.899 2.817 3.355 4.531 4.446.665.426 1.191.643 1.709.708.307.036.645-.039 1.156-.264a9.619 9.619 0 002.348-1.555 16.86 16.86 0 003.325-3.822c.603-.911.923-1.95.932-3.024 0-1.382-.393-2.407-1.242-3.207z" /></defs><use fill-rule="evenodd" transform="translate(-7 -7)" xlink:href="#icon-fixed-services_a" /></symbol><symbol viewBox="0 0 111 34" id="icon-googleplay"><defs></defs><g fill="none" fill-rule="evenodd"><g transform="translate(1 1)"><rect width="109.268" height="31.764" fill="#333" stroke="#979797" rx="6" /><path fill="url(#icon-googleplay_a) #FFFFFF" d="M13.007 6.122L2.133.183C1.825.016 1.54-.023 1.31.048l8.906 8.847 2.79-2.773" transform="translate(6.208 6.988)" /><path fill="url(#icon-googleplay_b) #FFFFFF" d="M13.02 11.68l3.713-2.027c.752-.413.752-1.084 0-1.496l-3.726-2.035-2.79 2.773 2.804 2.785" transform="translate(6.208 6.988)" /><path fill="url(#icon-googleplay_c) #FFFFFF" d="M1.31.048C.979.15.765.483.765.986l.002 15.838c0 .498.207.825.528.934l8.921-8.862L1.31.048" transform="translate(6.208 6.988)" /><path fill="url(#icon-googleplay_d) #FFFFFF" d="M1.295 17.758c.232.078.522.042.838-.13L13.02 11.68l-2.803-2.784-8.92 8.862" transform="translate(6.208 6.988)" /></g><path fill="#FFF" d="M73.366 20.013l-.728.696c-.169.094-.336.203-.504.28-.506.232-1.02.29-1.478.29-.487 0-1.25-.031-2.029-.6-1.081-.772-1.554-2.097-1.554-3.251 0-2.391 1.923-3.564 3.492-3.564.548 0 1.112.14 1.57.432.76.51.958 1.172 1.067 1.526l-3.583 1.465-1.173.092c.38 1.96 1.69 3.1 3.139 3.1.723 0 1.26-.239 1.753-.485 0 0 .099-.052.028.02zm-9.733-5.95l-.976.558h-.946c.35.291 1.08.909 1.08 2.08 0 1.142-.637 1.68-1.278 2.19-.197.2-.427.418-.427.754 0 .342.23.527.396.665l.55.43c.67.571 1.28 1.095 1.28 2.16 0 1.45-1.388 2.913-4.01 2.913-2.208 0-3.275-1.064-3.275-2.205 0-.555.273-1.342 1.174-1.88.945-.585 2.225-.663 2.91-.709-.214-.28-.458-.572-.458-1.05 0-.261.078-.417.153-.6-.167.015-.335.032-.488.032-1.616 0-2.53-1.22-2.53-2.423 0-.709.32-1.496.977-2.066.869-.724 1.905-.848 2.728-.848h3.14zm2.92-3.9c-.472.278-.613.446-.674.986l-.003 8.745c0 .599.105.692.606.74.261.03.521.044.779.075l-.564.34h-2.686c.353-.463.413-.509.413-.817v-.344l-.006-9.168h-1.186l1.142-.556h2.18zm3.584 4.21c.821 0 1.51.711 1.51 1.327 0 .215-.151.307-.442.414l-2.774 1.218c-.015-.276-.046-.553-.046-.813 0-1.666 1.143-2.146 1.752-2.146zm-9.506 7.093c-.125-.016-.2-.016-.351-.016-.138 0-.962.03-1.6.247-.337.124-1.312.493-1.312 1.588 0 1.093 1.053 1.881 2.682 1.881 1.463 0 2.24-.71 2.24-1.665 0-.786-.503-1.2-1.66-2.035zm-8.14-7.602c2.24 0 3.643 1.775 3.643 3.638 0 1.82-1.387 3.746-3.872 3.746-2.422 0-3.718-1.909-3.718-3.637 0-2.019 1.629-3.747 3.947-3.747zm7.04.71c1.267 0 1.92 1.727 1.92 2.836 0 .279-.03.77-.382 1.126a1.55 1.55 0 01-1.034.432c-1.31 0-1.905-1.712-1.905-2.745 0-.4.077-.817.335-1.139.243-.31.671-.51 1.067-.51zm-15.15-.71c2.24 0 3.641 1.775 3.641 3.638 0 1.82-1.385 3.746-3.87 3.746-2.423 0-3.717-1.909-3.717-3.637 0-2.019 1.63-3.747 3.947-3.747zm7.715.479c1.89 0 2.53 2.59 2.53 3.948 0 .6-.09 1.216-.458 1.71-.351.492-.96.784-1.555.784-1.848 0-2.592-2.513-2.592-4.036 0-.665.106-1.343.702-1.883a2.111 2.111 0 011.373-.523zm28.149-.51c1.911 0 3.199 1.467 3.199 3.79 0 2.306-1.288 3.804-3.2 3.804-1.005 0-1.907-.525-2.485-1.348v3.927h-.77v-9.993h.77v1.138c.502-.736 1.42-1.319 2.486-1.319zm-44.851-3.036c.77 0 1.512.114 2.188.3 1.07.305 1.571.68 1.884.9l-1.187 1.14-.5.114.357-.575c-.483-.478-1.372-1.36-3.057-1.36-2.254 0-3.955 1.734-3.955 4.265 0 2.718 1.942 5.275 5.056 5.275.914 0 1.386-.186 1.813-.36v-2.33l-2.157.118 1.143-.622h3.028l-.37.36c-.1.087-.114.116-.142.231-.015.132-.029.55-.029.697v1.763l-2.043.473c-.828.132-1.57.248-2.358.248-3.94 0-5.442-2.935-5.442-5.231 0-2.806 2.127-5.406 5.77-5.406zm8.592 3.546c1.888 0 2.529 2.59 2.529 3.948 0 .6-.091 1.216-.457 1.71-.352.492-.96.784-1.554.784-1.844 0-2.591-2.513-2.591-4.036 0-.665.105-1.343.701-1.883a2.102 2.102 0 011.372-.523zm50.036-.33l2.605 6.321 2.58-6.321h.871l-3.703 8.825c-.385.91-.99 1.347-1.82 1.347-.249 0-.578-.045-.77-.105l.132-.72c.165.075.446.12.625.12.471 0 .8-.195 1.094-.884l.563-1.289-3.037-7.294h.86zm-4.468-.184c.84 0 1.52.205 2.033.613.512.405.77.99.77 1.753v3.569a4.78 4.78 0 00.197 1.462h-.889c-.051-.251-.09-.473-.118-.657a4.455 4.455 0 01-.037-.564c-.265.393-.639.72-1.117.976-.479.26-.934.387-1.557.387-.751 0-1.334-.187-1.75-.567-.415-.378-.623-.891-.623-1.54 0-.65.302-1.176.904-1.578.603-.404 1.381-.605 2.345-.605h1.798v-.9c0-.517-.175-.924-.523-1.22-.35-.295-.84-.444-1.476-.444-.58 0-1.052.136-1.411.402-.356.272-.536.608-.536 1.013h-.789l-.016-.039c-.028-.546.219-1.025.744-1.44.523-.413 1.208-.62 2.051-.62zm-4.287-2.575v9.993h-.77v-9.993h.77zm-5.152 3.283c1.599 0 2.5 1.335 2.5 3.085 0 1.753-.901 3.1-2.5 3.1-.993 0-1.943-.818-2.356-1.508v-3.2c.413-.688 1.363-1.477 2.356-1.477zm8.815 6.12c.655 0 1.125-.148 1.606-.44.478-.292.803-.672.974-1.131v-1.39h-1.807c-.69 0-1.261.155-1.71.467-.45.31-.679.686-.679 1.124 0 .412.145.742.432.992.288.253.682.378 1.184.378z" /></g></symbol><linearGradient id="icon-googleplay_a" x1="19.215%" x2="69.302%" y1=".908%" y2="75.098%"><stop offset="0%" stop-color="#19A3B4" /><stop offset="34.817%" stop-color="#5BC3AF" /><stop offset="92.234%" stop-color="#C8F7A6" /><stop offset="100%" stop-color="#D7FEA5" /></linearGradient><linearGradient id="icon-googleplay_b" x1="-14.698%" x2="74.844%" y1="-51.246%" y2="89.529%"><stop offset="0%" stop-color="#FC227C" /><stop offset="100%" stop-color="#FEEB7B" /></linearGradient><linearGradient id="icon-googleplay_c" x1="43.777%" x2="49.484%" y1="-14.814%" y2="82.894%"><stop offset="0%" stop-color="#0E4DA0" /><stop offset="100%" stop-color="#6BFED4" /></linearGradient><linearGradient id="icon-googleplay_d" x1="132.245%" x2="5.959%" y1="30.669%" y2="93.99%"><stop offset="0%" stop-color="#FFF" /><stop offset=".332%" stop-color="#FC472F" /><stop offset="100%" stop-color="#893CD8" /></linearGradient><symbol viewBox="0 0 40 34" id="icon-help-appointment"><defs><path id="icon-help-appointment_a" d="M11.75.125c.621 0 1.125.504 1.125 1.125v3.375h14.25V1.25c0-.621.504-1.125 1.125-1.125H32c.621 0 1.125.504 1.125 1.125v3.375H38c.621 0 1.125.504 1.125 1.125v24.755a3.374 3.374 0 01-3.37 3.37H4.244a3.374 3.374 0 01-3.37-3.37V5.75c0-.621.504-1.125 1.125-1.125h4.875V1.25C6.875.629 7.379.125 8 .125zm25.125 14.25H3.125v16.13c0 .617.502 1.12 1.12 1.12h31.51c.617 0 1.12-.503 1.12-1.12v-16.13zm-7.84 4.169c1.458-.724 3.138-.488 4.283.595.868.822 1.308 1.911 1.308 3.239a5.141 5.141 0 01-.852 2.79 11.964 11.964 0 01-2.322 2.67 7.59 7.59 0 01-1.842 1.21c-.365.162-.82.327-1.352.327-.102 0-.204-.006-.312-.02-.77-.097-1.378-.442-1.771-.691-1.23-.785-2.286-1.818-3.225-3.155-.63-.901-.974-1.78-1.053-2.689-.096-1.108.132-2.103.682-2.954.8-1.3 2.361-1.969 3.88-1.662a4.17 4.17 0 011.8.83c.242-.19.499-.352.776-.49zm2.735 2.23c-.468-.443-1.113-.518-1.733-.218-.31.158-.582.377-.795.653l-.102.119c-.043.05-.112.12-.163.162a1.181 1.181 0 01-.543.241 1.12 1.12 0 01-1.022-.357l-.135-.154c-.06-.068-.118-.137-.181-.201a1.992 1.992 0 00-1.082-.61 1.439 1.439 0 00-1.53.656c-.294.454-.4.944-.346 1.558.046.514.253 1.02.657 1.595.765 1.09 1.612 1.926 2.589 2.55.339.215.598.324.843.355.078.017.23-.027.453-.124a5.424 5.424 0 001.291-.855 9.73 9.73 0 001.913-2.199c.32-.482.486-1.023.492-1.581 0-.69-.192-1.2-.606-1.59zM6.875 6.875h-3.75v5.25h33.75v-5.25h-3.75c0 1.655-1.346 3-3 3s-3-1.345-3-3h-14.25c0 1.655-1.345 3-3 3s-3-1.345-3-3zm24-4.5h-1.5v4.5c0 .412.337.75.75.75s.75-.338.75-.75v-4.5zm-20.25 0h-1.5v4.5c0 .412.338.75.75.75s.75-.338.75-.75v-4.5z" /></defs><use fill-rule="evenodd" xlink:href="#icon-help-appointment_a" /></symbol><symbol viewBox="0 0 30 40" id="icon-help-billing"><defs><path id="icon-help-billing_a" d="M20.625.875c.026 0 .047.012.07.015.1.006.195.024.29.057l.107.036c.12.055.232.124.328.222l7.5 7.5c.097.096.166.209.22.329.017.035.026.07.038.106.033.095.051.19.057.29.003.024.015.045.015.07v26.25a3.38 3.38 0 01-3.375 3.375H4.125A3.38 3.38 0 01.75 35.75V4.25A3.38 3.38 0 014.125.875zM19.5 3.125H4.125C3.505 3.125 3 3.631 3 4.25v31.5c0 .62.506 1.125 1.125 1.125h21.75c.62 0 1.125-.505 1.125-1.125V10.625h-6.375A1.125 1.125 0 0119.5 9.5V3.125zm4.125 27.75a1.125 1.125 0 010 2.25h-7.5a1.125 1.125 0 010-2.25zm-12.42-3.42a1.125 1.125 0 111.591 1.591l-3.75 3.75a1.124 1.124 0 01-1.591 0L5.58 30.921A1.125 1.125 0 117.17 29.33l1.079 1.08zm9.42-.33a1.125 1.125 0 010 2.25h-4.5a1.125 1.125 0 010-2.25zm3-4.5a1.125 1.125 0 010 2.25h-7.5a1.125 1.125 0 010-2.25zm-12.42-3.42a1.125 1.125 0 111.591 1.591l-3.75 3.75a1.124 1.124 0 01-1.591 0L5.58 22.671A1.125 1.125 0 117.17 21.08l1.079 1.08zm9.42-.33a1.125 1.125 0 010 2.25h-4.5a1.125 1.125 0 010-2.25zm-9.375-13.5c3.1 0 5.625 2.524 5.625 5.625a5.632 5.632 0 01-5.625 5.625A5.632 5.632 0 015.625 11c0-3.101 2.524-5.625 5.625-5.625zm-1.125 2.458C8.819 8.3 7.875 9.536 7.875 11a3.38 3.38 0 003.375 3.375 3.366 3.366 0 003.166-2.25H11.25A1.125 1.125 0 0110.125 11zm2.25 0v2.042h2.041a3.373 3.373 0 00-2.041-2.042zm9.375-3.117v3.659h3.659L21.75 4.716z" /></defs><use fill-rule="evenodd" xlink:href="#icon-help-billing_a" /></symbol><symbol viewBox="0 0 30 40" id="icon-help-billing2"><defs><path id="icon-help-billing2_a" d="M32.625 7.875c.026 0 .047.012.07.015.1.006.196.024.29.057.036.012.07.022.107.036.12.056.232.125.328.222l7.5 7.5c.097.096.166.209.22.329.017.036.026.07.038.106.033.095.051.19.057.29.003.023.015.044.015.07v26.25a3.38 3.38 0 01-3.375 3.375h-21.75a3.38 3.38 0 01-3.375-3.375v-31.5a3.38 3.38 0 013.375-3.375zm-1.125 2.25H16.125c-.62 0-1.125.505-1.125 1.125v31.5c0 .62.505 1.125 1.125 1.125h21.75c.62 0 1.125-.505 1.125-1.125V17.625h-6.375A1.125 1.125 0 0131.5 16.5v-6.375zm4.125 27.75a1.125 1.125 0 010 2.25h-7.5a1.125 1.125 0 010-2.25zm-12.42-3.42a1.125 1.125 0 111.591 1.591l-3.75 3.75a1.124 1.124 0 01-1.591 0l-1.875-1.875a1.125 1.125 0 111.591-1.591l1.079 1.08zm9.42-.33a1.125 1.125 0 010 2.25h-4.5a1.125 1.125 0 010-2.25zm3-4.5a1.125 1.125 0 010 2.25h-7.5a1.125 1.125 0 010-2.25zm-12.42-3.42a1.125 1.125 0 111.591 1.591l-3.75 3.75a1.124 1.124 0 01-1.591 0l-1.875-1.875a1.125 1.125 0 111.591-1.591l1.079 1.08zm9.42-.33a1.125 1.125 0 010 2.25h-4.5a1.125 1.125 0 010-2.25zm-9.375-13.5c3.1 0 5.625 2.524 5.625 5.625a5.632 5.632 0 01-5.625 5.625A5.632 5.632 0 0117.625 18c0-3.1 2.524-5.625 5.625-5.625zm-1.125 2.458c-1.306.467-2.25 1.703-2.25 3.167a3.38 3.38 0 003.375 3.375 3.366 3.366 0 003.166-2.25H23.25A1.125 1.125 0 0122.125 18zm2.25 0v2.042h2.041a3.373 3.373 0 00-2.041-2.042zm9.375-3.117v3.659h3.658l-3.658-3.659z" /></defs><g fill="none" fill-rule="evenodd" transform="translate(-12 -7)"><use fill="#000" xlink:href="#icon-help-billing2_a" /><g fill="#333" mask="url(#icon-help-billing2_b)"><path d="M0 0h54v54H0z" /></g></g></symbol><mask id="icon-help-billing2_b" fill="#fff"><use xlink:href="#icon-help-billing2_a" /></mask><symbol viewBox="0 0 40 40" id="icon-help-cart"><defs><path id="icon-help-cart_a" d="M12.125 35.75c0 .62-.505 1.125-1.125 1.125s-1.125-.505-1.125-1.125.505-1.125 1.125-1.125 1.125.505 1.125 1.125m23.625 1.125c-.62 0-1.125-.505-1.125-1.125s.505-1.125 1.125-1.125 1.125.505 1.125 1.125-.505 1.125-1.125 1.125m0-4.5H7.625a1.5 1.5 0 010-3H35c.056 0 .103-.021.156-.029.09-.012.178-.022.26-.055.045-.018.079-.048.12-.072a1.05 1.05 0 00.224-.15c.041-.037.07-.082.104-.124a1.1 1.1 0 00.137-.204c.028-.055.041-.111.06-.17.014-.048.04-.093.049-.144l3-18.75a1.117 1.117 0 00-.255-.906A1.122 1.122 0 0038 8.375H12a1.125 1.125 0 000 2.25h24.68l-2.64 16.5H10.984L8.633 9.5l-1.02-7.649A1.124 1.124 0 006.5.875H2a1.125 1.125 0 000 2.25h3.516l2.466 18.506.734 5.494H7.625a3.753 3.753 0 00-3.75 3.75 3.753 3.753 0 003.75 3.75h.208a3.341 3.341 0 00-.208 1.125A3.38 3.38 0 0011 39.125a3.38 3.38 0 003.375-3.375c0-.396-.082-.771-.209-1.125h18.418a3.341 3.341 0 00-.209 1.125 3.38 3.38 0 003.375 3.375 3.38 3.38 0 003.375-3.375 3.38 3.38 0 00-3.375-3.375" /></defs><use fill-rule="evenodd" xlink:href="#icon-help-cart_a" /></symbol><symbol viewBox="0 0 40 40" id="icon-help-home"><defs><path id="icon-help-home_a" d="M26.28 8.136a1.12 1.12 0 011.44 0l18 15a1.125 1.125 0 01-.72 1.989h-3.375V45c0 .621-.504 1.125-1.125 1.125h-27A1.125 1.125 0 0112.375 45V25.125H9a1.125 1.125 0 01-.72-1.989zm.72 2.33L12.107 22.875H13.5c.621 0 1.125.504 1.125 1.125v19.875h24.75V24c0-.621.504-1.125 1.125-1.125h1.394L27 10.465zm1.645 14.525c2.178-1.073 4.584-.74 6.285.867 1.29 1.223 1.944 2.857 1.944 4.854a7.783 7.783 0 01-1.295 4.238 19.103 19.103 0 01-3.732 4.29 11.886 11.886 0 01-2.9 1.913c-.524.23-1.184.472-1.939.472-.138 0-.279-.009-.423-.027-1.111-.138-1.995-.629-2.641-1.041-1.965-1.254-3.654-2.906-5.163-5.055-.97-1.388-1.5-2.735-1.622-4.119-.147-1.674.197-3.171 1.02-4.449 1.172-1.914 3.46-2.907 5.687-2.444a6.218 6.218 0 013.14 1.642 6.957 6.957 0 011.639-1.14zm4.737 2.503c-1-.947-2.429-1.13-3.735-.488a4.716 4.716 0 00-1.59 1.296l-.126.154c-.087.104-.227.23-.345.296-.07.039-.186.09-.264.113a1.13 1.13 0 01-1.164-.332l-.186-.212c-.12-.138-.239-.279-.37-.409a4.035 4.035 0 00-2.182-1.215 3.153 3.153 0 00-3.336 1.434c-.568.882-.787 1.873-.684 3.055.089.995.476 1.956 1.223 3.026 1.335 1.899 2.817 3.355 4.531 4.446.665.426 1.191.643 1.709.708.307.036.645-.039 1.156-.264a9.619 9.619 0 002.348-1.555 16.86 16.86 0 003.325-3.822c.603-.911.923-1.95.932-3.024 0-1.382-.393-2.407-1.242-3.207z" /></defs><use fill-rule="evenodd" transform="translate(-7 -7)" xlink:href="#icon-help-home_a" /></symbol><symbol viewBox="0 0 39 39" id="icon-help-mobile"><defs><path id="icon-help-mobile_a" d="M28.846 27.028c-.62 0-1.125.504-1.125 1.125v6a2.57 2.57 0 01-2.566 2.568H20.28v-3.03c0-2.91-2.37-5.277-5.28-5.277a5.284 5.284 0 00-5.279 5.277v3.03H4.846a2.57 2.57 0 01-2.566-2.568v-4.875h3.028A5.283 5.283 0 0010.587 24a5.284 5.284 0 00-5.279-5.279H2.28v-4.875a2.57 2.57 0 012.566-2.568h6c.621 0 1.125-.504 1.125-1.125V6A3.032 3.032 0 0115 2.97 3.033 3.033 0 0118.03 6v4.153c0 .621.504 1.125 1.125 1.125h6a2.57 2.57 0 012.566 2.568v6c0 .621.504 1.125 1.125 1.125H33A3.033 3.033 0 0136.03 24 3.032 3.032 0 0133 27.028h-4.154zM33 18.721H29.97v-4.875a4.821 4.821 0 00-4.816-4.818H20.28V6C20.28 3.09 17.91.72 15 .72A5.285 5.285 0 009.72 6v3.028H4.846A4.821 4.821 0 00.03 13.846v6c0 .621.504 1.125 1.125 1.125h4.153A3.032 3.032 0 018.337 24a3.032 3.032 0 01-3.029 3.028H1.155c-.621 0-1.125.504-1.125 1.125v6a4.822 4.822 0 004.816 4.818h6c.621 0 1.125-.504 1.125-1.125v-4.155A3.031 3.031 0 0115 30.664a3.032 3.032 0 013.03 3.027v4.155c0 .621.504 1.125 1.125 1.125h6a4.822 4.822 0 004.816-4.818v-4.875H33c2.91 0 5.28-2.367 5.28-5.278 0-2.91-2.37-5.279-5.28-5.279z" /></defs><use fill-rule="evenodd" xlink:href="#icon-help-mobile_a" /></symbol><symbol viewBox="0 0 40 39" id="icon-help-online"><defs><path id="icon-help-online_a" d="M25.735 35.071c1.384-1.768 2.506-4.176 3.274-7.01a21.226 21.226 0 014.07 1.804 16.906 16.906 0 01-7.344 5.206zM6.92 29.865c1.244-.726 2.616-1.325 4.073-1.802.766 2.834 1.89 5.24 3.273 7.008a16.902 16.902 0 01-7.346-5.206zm7.346-26.493c-1.385 1.768-2.507 4.176-3.275 7.01a21.107 21.107 0 01-4.07-1.804 16.91 16.91 0 017.345-5.206zM33.08 8.58a21.288 21.288 0 01-4.072 1.801c-.767-2.835-1.889-5.24-3.273-7.01A16.914 16.914 0 0133.08 8.58zM21.125 24.433v-4.086h6.722a32.93 32.93 0 01-.52 4.893 31.828 31.828 0 00-6.202-.807zm0 11.462V26.71c1.944.07 3.87.312 5.708.741-1.191 4.434-3.288 7.662-5.708 8.444zm-2.25-9.185v9.185c-2.42-.782-4.518-4.01-5.707-8.442a29.988 29.988 0 015.707-.743zm-6.723-6.363h6.723v4.086a31.945 31.945 0 00-6.202.81 32.946 32.946 0 01-.52-4.896zm6.723-6.337v4.087h-6.723c.056-1.707.236-3.352.52-4.896a31.93 31.93 0 006.203.809zm0-11.462v9.185a29.764 29.764 0 01-5.709-.741c1.191-4.434 3.288-7.662 5.71-8.444zm2.25 9.185V2.548c2.418.782 4.517 4.01 5.706 8.442a29.837 29.837 0 01-5.706.743zm0 2.277a32.092 32.092 0 006.203-.81c.285 1.543.463 3.189.519 4.897h-6.722V14.01zM5.623 10.432c1.486.888 3.127 1.61 4.866 2.17a35.041 35.041 0 00-.585 5.495H3.182a16.723 16.723 0 012.44-7.665zm-2.44 9.915h6.72c.058 1.93.259 3.773.587 5.498-1.738.56-3.38 1.28-4.867 2.166a16.74 16.74 0 01-2.44-7.664zm31.195 7.664c-1.487-.888-3.128-1.61-4.866-2.17.325-1.724.526-3.563.583-5.494h6.723a16.74 16.74 0 01-2.44 7.664zm2.44-9.914h-6.723a35.284 35.284 0 00-.583-5.497c1.737-.56 3.38-1.281 4.866-2.168a16.741 16.741 0 012.44 7.665zM20 .097C9.454.097.875 8.676.875 19.222.875 29.767 9.454 38.347 20 38.347c10.545 0 19.125-8.58 19.125-19.125C39.125 8.676 30.545.097 20 .097z" /></defs><use fill-rule="evenodd" xlink:href="#icon-help-online_a" /></symbol><symbol viewBox="0 0 32 40" id="icon-help-roaming"><path fill-rule="evenodd" d="M20.25.875a3.38 3.38 0 013.375 3.375v3.258a1.125 1.125 0 01-2.25 0V4.25c0-.62-.506-1.125-1.125-1.125H3.75c-.62 0-1.125.505-1.125 1.125v31.5c0 .62.506 1.125 1.125 1.125h16.5c.62 0 1.125-.506 1.125-1.125v-4.242a1.125 1.125 0 012.25 0v4.242a3.38 3.38 0 01-3.375 3.375H3.75A3.38 3.38 0 01.375 35.75V4.25A3.38 3.38 0 013.75.875h16.5zm-8.685 31.59a1.124 1.124 0 011.23 1.832 1.186 1.186 0 01-.36.237c-.152.06-.285.09-.435.09a1.126 1.126 0 01-1.125-1.125 1.124 1.124 0 01.69-1.035zM22.5 10.882c2.358 0 4.412.845 6.102 2.513a8.988 8.988 0 011.646 2.216l.009.018c.384.771.64 1.61.762 2.496.07.446.106.911.106 1.382 0 2.358-.846 4.412-2.51 6.102a9.12 9.12 0 01-1.181 1.002c-1.443 1.011-3.102 1.521-4.934 1.521-.43 0-.84-.023-1.227-.066a1.172 1.172 0 01-.262-.055 7.914 7.914 0 01-3.056-1.15 8.522 8.522 0 01-1.564-1.246 6.579 6.579 0 01-.41-.45 8.226 8.226 0 01-1.68-2.98 8.208 8.208 0 01-.426-2.678c0-.564.047-1.123.14-1.662.078-.408.189-.807.336-1.198.1-.354.279-.764.505-1.15a8.234 8.234 0 011.535-2.096c1.044-1.044 2.24-1.768 3.553-2.154.012-.005.024-.008.038-.012a8.817 8.817 0 012.518-.353zm-3.192 3.072a6.519 6.519 0 00-1.326 1.037 6.136 6.136 0 00-.487.545c.316.275.531.644.603 1.062.403.002.895.089 1.264.462.171.172.242.32.428.814.064.003.297-.002.483.05.459.13.954.223 1.47.276h.018c.555 0 1.116.28 1.471.785.345.591.318 1.201-.02 1.761a2.023 2.023 0 01-.866.831c-.042.029-.242.132-1.178.507-.342.13-.44.235-.456.253.008 0-.123.288-.004 1.139.045.246.085.398.114.483.043.018.112.048.207.081.504.168.822.315 1.044.489.295.235.454.603.423.98a7.35 7.35 0 00-.023.373c.978-.03 1.877-.178 2.694-.552-.38-.378-.595-.758-.676-1.167-.048-.504.013-1.073.481-1.647a2.32 2.32 0 01-.694-.585 2.198 2.198 0 01-.494-1.257 2.037 2.037 0 01.282-1.337c.326-.469.695-.754 1.14-.918a2.856 2.856 0 011.013-.162c.136 0 .32.008.552.023a2.8 2.8 0 00.54-.216c.45-.236.77-.389.95-.462.104-.05.21-.096.314-.137a4.723 4.723 0 00-.085-.258c-.237-.03-.492-.071-.773-.127-.57-.138-.931-.216-1.13-.234-.974-.194-1.208.072-1.295.175a1.11 1.11 0 01-.272.23c-.202.291-.32.43-.349.459-.048.048-.099.09-.156.13-.633.437-1.358.477-1.99.107-.13-.063-.298-.207-.482-.435a.981.981 0 00-.105-.005c-.689.03-.996-.011-1.227-.088-.377-.125-.893-.42-1.248-1.125a3.32 3.32 0 01-.308-1.412c0-.077.01-.155.026-.232.06-.291.103-.522.127-.696zm-3.099 4.411a7.582 7.582 0 00-.084 1.142c0 .708.105 1.373.314 1.977a6.158 6.158 0 001.254 2.223c.097.117.19.218.29.318.223.224.455.426.691.605a6.558 6.558 0 01-.188-.8c-.17-1.229-.043-2.122.383-2.78a2.937 2.937 0 011.075-.886 1.894 1.894 0 01-.139-.036c-1.182-.054-1.734-.695-1.962-1.083a1.35 1.35 0 01-.08-.162c-.83.038-1.291-.224-1.554-.518zm12.66 1.428c-.132.065-.31.157-.535.275-.504.252-.93.399-1.323.457-.084.012-.17.012-.252.01-.545-.04-.768-.007-.768-.007l.528.056c.852.244 1.137.724 1.236 1.032l.023.07c.114.368.17 1.031-.517 1.713l-.418.419c.073.065.141.125.2.18 1.162-1.192 1.765-2.572 1.826-4.204zM22.5 13.133c-.333 0-.657.023-.969.065.041.29.047.563.03.847a9.42 9.42 0 01-.153.938c.008.106.029.2.06.287.116.004.25-.002.419-.01.634 0 1.114.136 1.465.405.02.012.036.024.054.036.087-.096.182-.183.284-.26.516-.546 1.41-1.075 2.851-.88-1.156-.96-2.487-1.428-4.04-1.428zm-7.569-7.758a1.125 1.125 0 010 2.25H9.07a1.125 1.125 0 010-2.25h5.862z" /></symbol><symbol viewBox="0 0 32 32" id="icon-instagram"><defs></defs><path fill="url(#icon-instagram_a)" fill-rule="evenodd" d="M16 0c8.837 0 16 7.163 16 16s-7.163 16-16 16S0 24.837 0 16 7.163 0 16 0zm3.5 6h-7A6.5 6.5 0 006 12.5v7a6.5 6.5 0 006.5 6.5h7a6.5 6.5 0 006.5-6.5v-7A6.5 6.5 0 0019.5 6zm0 2a4.5 4.5 0 014.5 4.5v7a4.5 4.5 0 01-4.5 4.5h-7A4.5 4.5 0 018 19.5v-7A4.5 4.5 0 0112.5 8zM16 11a5 5 0 100 10 5 5 0 000-10zm0 2a3 3 0 110 6 3 3 0 010-6zm5-3a1 1 0 100 2 1 1 0 000-2z" /></symbol><linearGradient id="icon-instagram_a" x1="100%" x2="0%" y1="50%" y2="50%"><stop offset="0%" stop-color="#1792CA" /><stop offset="100%" stop-color="#02A7CE" /></linearGradient><symbol viewBox="0 0 50 50" id="icon-links"><defs><path id="icon-links_a" d="M28.083 47.5a1.25 1.25 0 010 2.5h-6.167a1.25 1.25 0 010-2.5zM21.678.31c5.12-.96 10.294.346 14.184 3.578 3.688 3.061 5.805 7.511 5.805 12.206 0 3.698-1.27 7.175-3.674 10.057-1.631 1.958-2.493 4.207-2.493 6.503v.263c0 .41-.212.759-.518.986.32.595.518 1.263.518 1.983 0 1.156-.47 2.205-1.227 2.968a4.206 4.206 0 011.227 2.968 4.225 4.225 0 01-4.218 4.22H18.718a4.224 4.224 0 01-4.218-4.22c0-1.156.468-2.205 1.227-2.968a4.199 4.199 0 01-1.227-2.968c0-.72.198-1.389.518-1.983a1.224 1.224 0 01-.518-.986v-.253c0-2.272-.892-4.558-2.573-6.61-3.074-3.741-4.232-8.426-3.265-13.191C9.935 6.573 15.168 1.527 21.678.31zm9.604 39.794H18.718a1.72 1.72 0 000 3.438h12.564a1.72 1.72 0 000-3.438zm0-5.937H18.718a1.72 1.72 0 000 3.437h12.564A1.72 1.72 0 0033 35.886a1.72 1.72 0 00-1.718-1.719zM34.265 5.81c-3.317-2.753-7.74-3.863-12.127-3.042-5.52 1.032-9.953 5.29-11.028 10.592-.813 4.013.163 7.96 2.748 11.11 1.815 2.212 2.875 4.682 3.097 7.198h4.172v-8.605h-1.205c-2.045 0-3.709-1.621-3.709-3.614 0-1.992 1.664-3.614 3.709-3.614 2.043 0 3.705 1.622 3.705 3.614v1.114h2.746v-1.114c0-1.992 1.662-3.614 3.705-3.614 2.044 0 3.707 1.622 3.707 3.614 0 1.993-1.663 3.614-3.707 3.614h-1.205v8.605h4.169c.213-2.538 1.251-4.98 3.031-7.116 2.024-2.428 3.094-5.352 3.094-8.457 0-3.948-1.787-7.697-4.902-10.285zm-7.893 17.253h-2.745v8.604h2.745v-8.604zm3.706-4.728c-.665 0-1.205.5-1.205 1.114 0 .614.54 1.114 1.205 1.114s1.207-.5 1.207-1.114c0-.614-.542-1.114-1.207-1.114zm-10.156 0c-.667 0-1.209.5-1.209 1.114 0 .614.542 1.114 1.209 1.114.665 0 1.205-.5 1.205-1.114 0-.614-.54-1.114-1.205-1.114z" /></defs><use fill-rule="evenodd" xlink:href="#icon-links_a" /></symbol><symbol viewBox="0 0 26 26" id="icon-local"><defs><path id="icon-local_a" d="M6 12.25a.75.75 0 010 1.5H3.636l-1.75 10.5h22.228l-1.75-10.5H20a.75.75 0 010-1.5h3a.75.75 0 01.74.627l2 12a.747.747 0 01-.168.607.746.746 0 01-.572.266H1a.746.746 0 01-.572-.266.747.747 0 01-.168-.607l2-12A.75.75 0 013 12.25zM13 .251l.08.003c3.31.043 6.003 2.791 6.003 6.125l-.004.105c.01.31-.01.627-.06.934-.185 1.113-.624 2.12-1.031 2.958-.44.907-.93 1.77-1.444 2.624-.887 1.475-1.864 2.913-2.931 4.431a.747.747 0 01-1.226 0c-1.067-1.518-2.044-2.956-2.931-4.43a32.782 32.782 0 01-1.444-2.625c-.406-.838-.846-1.845-1.031-2.959a4.896 4.896 0 01-.06-.97C6.917 3.045 9.61.297 12.92.254c.047-.004.113-.004.16 0zm-.002 1.5a.653.653 0 01-.058.003c-2.495.032-4.523 2.107-4.523 4.625l.004.117c-.008.246.005.466.039.674.154.926.524 1.773.9 2.552 1.006 2.072 2.246 3.961 3.64 5.97 1.395-2.009 2.634-3.898 3.639-5.97.377-.779.747-1.626.9-2.55.035-.21.048-.43.04-.676V6.46l.004-.082c0-2.517-2.028-4.592-4.522-4.624-.02 0-.033.002-.063-.004zM13 3.332c1.654 0 3 1.346 3 3s-1.346 3-3 3-3-1.346-3-3 1.346-3 3-3zm0 1.5c-.827 0-1.5.673-1.5 1.5s.673 1.5 1.5 1.5 1.5-.673 1.5-1.5-.673-1.5-1.5-1.5z" /></defs><use fill-rule="evenodd" xlink:href="#icon-local_a" /></symbol><symbol viewBox="0 0 50 50" id="icon-logo"><defs><path id="icon-logo_a" d="M4.735 0C2.12 0 0 2.078 0 4.642v39.736c0 2.564 2.12 4.642 4.735 4.642h40.53c2.615 0 4.735-2.078 4.735-4.642V4.642C50 2.078 47.88 0 45.266 0H4.735z" /></defs><g fill="none" fill-rule="evenodd"><g transform="translate(0 .508)"><path fill="url(#icon-logo_b)" d="M4.735 0C2.12 0 0 2.078 0 4.642v39.736c0 2.564 2.12 4.642 4.735 4.642h40.53c2.615 0 4.735-2.078 4.735-4.642V4.642C50 2.078 47.88 0 45.266 0H4.735z" mask="url(#icon-logo_c)" /></g><g fill="#FFF"><path d="M43.447 28.392c-.004 5.778-4.828 10.454-10.777 10.454a10.933 10.933 0 01-7.677-3.113 10.933 10.933 0 01-7.68 3.113c-5.955 0-10.772-4.68-10.772-10.454 0-5.778 4.817-10.456 10.773-10.456 1.63 0 3.18.347 4.563.982v-4.943c0-1.665 1.392-3.011 3.103-3.011 1.717 0 3.106 1.346 3.106 3.011v14.417c0 2.449 2.065 4.423 4.584 4.423 2.52 0 4.564-1.974 4.565-4.423v-3.828c0-1.658 1.392-3.01 3.107-3.01 1.706 0 3.101 1.352 3.101 3.01l.004 3.828zm-30.696 0c0 2.449 2.043 4.423 4.563 4.423 2.52 0 4.563-1.974 4.563-4.423 0-2.448-2.043-4.43-4.563-4.43-2.52 0-4.563 1.982-4.563 4.43z" /><path d="M41.95 36.234c-.662 0-1.197.515-1.197 1.158 0 .64.535 1.165 1.197 1.165s1.199-.525 1.199-1.165c0-.643-.537-1.158-1.199-1.158m1.497 1.158c0 .805-.67 1.454-1.497 1.454-.822 0-1.495-.649-1.495-1.454 0-.803.673-1.448 1.495-1.448.827 0 1.497.645 1.497 1.448" /><path d="M41.995 36.856h-.262v.472h.262c.16 0 .27-.107.27-.235 0-.133-.11-.237-.27-.237m.27 1.323l-.33-.622h-.202v.622h-.3V36.61h.601c.307 0 .521.222.521.483 0 .221-.143.362-.313.422l.35.664h-.327" /></g></g></symbol><linearGradient id="icon-logo_b" x1="100%" x2="0%" y1="1.942%" y2="98.058%"><stop offset="0%" stop-color="#00A9CE" /><stop offset="32.314%" stop-color="#00A9CE" /><stop offset="66.157%" stop-color="#753BBD" /><stop offset="100%" stop-color="#00205B" /></linearGradient><mask id="icon-logo_c" fill="#fff"><use xlink:href="#icon-logo_a" /></mask><symbol viewBox="0 0 40 39" id="icon-managed-services"><defs><path id="icon-managed-services_a" d="M25.735 35.071c1.384-1.768 2.506-4.176 3.274-7.01a21.226 21.226 0 014.07 1.804 16.906 16.906 0 01-7.344 5.206zM6.92 29.865c1.244-.726 2.616-1.325 4.073-1.802.766 2.834 1.89 5.24 3.273 7.008a16.902 16.902 0 01-7.346-5.206zm7.346-26.493c-1.385 1.768-2.507 4.176-3.275 7.01a21.107 21.107 0 01-4.07-1.804 16.91 16.91 0 017.345-5.206zM33.08 8.58a21.288 21.288 0 01-4.072 1.801c-.767-2.835-1.889-5.24-3.273-7.01A16.914 16.914 0 0133.08 8.58zM21.125 24.433v-4.086h6.722a32.93 32.93 0 01-.52 4.893 31.828 31.828 0 00-6.202-.807zm0 11.462V26.71c1.944.07 3.87.312 5.708.741-1.191 4.434-3.288 7.662-5.708 8.444zm-2.25-9.185v9.185c-2.42-.782-4.518-4.01-5.707-8.442a29.988 29.988 0 015.707-.743zm-6.723-6.363h6.723v4.086a31.945 31.945 0 00-6.202.81 32.946 32.946 0 01-.52-4.896zm6.723-6.337v4.087h-6.723c.056-1.707.236-3.352.52-4.896a31.93 31.93 0 006.203.809zm0-11.462v9.185a29.764 29.764 0 01-5.709-.741c1.191-4.434 3.288-7.662 5.71-8.444zm2.25 9.185V2.548c2.418.782 4.517 4.01 5.706 8.442a29.837 29.837 0 01-5.706.743zm0 2.277a32.092 32.092 0 006.203-.81c.285 1.543.463 3.189.519 4.897h-6.722V14.01zM5.623 10.432c1.486.888 3.127 1.61 4.866 2.17a35.041 35.041 0 00-.585 5.495H3.182a16.723 16.723 0 012.44-7.665zm-2.44 9.915h6.72c.058 1.93.259 3.773.587 5.498-1.738.56-3.38 1.28-4.867 2.166a16.74 16.74 0 01-2.44-7.664zm31.195 7.664c-1.487-.888-3.128-1.61-4.866-2.17.325-1.724.526-3.563.583-5.494h6.723a16.74 16.74 0 01-2.44 7.664zm2.44-9.914h-6.723a35.284 35.284 0 00-.583-5.497c1.737-.56 3.38-1.281 4.866-2.168a16.741 16.741 0 012.44 7.665zM20 .097C9.454.097.875 8.676.875 19.222.875 29.767 9.454 38.347 20 38.347c10.545 0 19.125-8.58 19.125-19.125C39.125 8.676 30.545.097 20 .097z" /></defs><use fill-rule="evenodd" xlink:href="#icon-managed-services_a" /></symbol><symbol viewBox="0 0 22 23" id="icon-messenger"><path fill="#0084FF" fill-rule="nonzero" d="M11 0C4.925 0 0 4.588 0 10.248c0 3.226 1.6 6.102 4.1 7.981v3.908l3.745-2.069c1 .279 2.058.429 3.155.429 6.075 0 11-4.588 11-10.249C22 4.588 17.075 0 11 0zm1.093 13.801l-2.801-3.006-5.466 3.006L9.84 7.38l2.87 3.006 5.397-3.006-6.013 6.422z" /></symbol><symbol viewBox="0 0 30 30" id="icon-no-contract"><defs><path id="icon-no-contract_a" d="M21.75 5.25c.017 0 .031.008.047.01a.71.71 0 01.193.038l.071.024a.73.73 0 01.219.148l5 5a.709.709 0 01.147.219c.01.024.017.047.025.071a.71.71 0 01.038.193l.01.047v17.5c0 1.24-1.01 2.25-2.25 2.25h-14.5c-1.24 0-2.25-1.01-2.25-2.25v-21c0-1.24 1.01-2.25 2.25-2.25zM21 6.75H10.75a.752.752 0 00-.75.75v21c0 .413.337.75.75.75h14.5c.413 0 .75-.337.75-.75V11.75h-4.25A.75.75 0 0121 11V6.75zm-2.78 16.72a.75.75 0 011.06 0l.97.97.97-.97a.75.75 0 111.06 1.06l-.97.97.97.97a.75.75 0 11-1.06 1.06l-.97-.97-.97.97a.75.75 0 11-1.061-1.061l.97-.97-.97-.968a.75.75 0 010-1.061zm2.03-3.22a.75.75 0 010 1.5h-7a.75.75 0 010-1.5zm-1-3a.75.75 0 010 1.5h-6a.75.75 0 010-1.5zm3-3a.75.75 0 010 1.5h-9a.75.75 0 010-1.5zm-6-3a.75.75 0 010 1.5h-3a.75.75 0 010-1.5zm6.25-3.439v2.439h2.439L22.5 7.811z" /></defs><g fill="none" fill-rule="evenodd"><g transform="translate(-3 -3)"><use fill="#000" xlink:href="#icon-no-contract_a" /><g fill="#FFF" mask="url(#icon-no-contract_b)"><path d="M0 0h36v36H0z" /></g></g><path stroke="#FFF" stroke-linecap="round" stroke-width="1.5" d="M1.5 1.5l27 27" /></g></symbol><mask id="icon-no-contract_b" fill="#fff"><use xlink:href="#icon-no-contract_a" /></mask><symbol viewBox="0 0 28 30" id="icon-notification"><path id="icon-notification_a" d="M12.565 2.888c0-.765.644-1.388 1.436-1.388.792 0 1.434.623 1.434 1.388v.788a9.21 9.21 0 00-1.133-.11c-.59-.018-1.17.022-1.737.102v-.78zm5.077 22.05H2.475l.813-1.588a21.545 21.545 0 002.355-9.757v-.374c0-2.186.875-4.24 2.462-5.782 1.646-1.596 3.85-2.435 6.152-2.371 4.467.132 8.1 3.956 8.1 8.527 0 3.369.815 6.743 2.355 9.757l.813 1.588h-7.883zM14.001 28.5c-1.33 0-2.451-.875-2.79-2.062h5.577c-.337 1.187-1.46 2.062-2.787 2.062zm13.418-3.154l-1.372-2.68a20.034 20.034 0 01-2.19-9.073c0-4.441-2.931-8.277-6.921-9.563V2.888C16.936 1.296 15.62 0 14 0c-1.62 0-2.936 1.296-2.936 2.888v1.109A9.847 9.847 0 007.06 6.36c-1.883 1.827-2.918 4.263-2.918 6.858v.374c0 3.133-.758 6.27-2.19 9.073l-1.37 2.68a.75.75 0 00.668 1.092h8.433C10.05 28.458 11.84 30 14.002 30c2.16 0 3.95-1.542 4.315-3.562h8.434a.75.75 0 00.669-1.092z" /></symbol><symbol viewBox="0 0 44 58" id="icon-postpaid"><defs><path id="icon-postpaid_a" d="M28.667.666c.442 0 .866.176 1.177.49l13.334 13.333c.313.31.489.735.489 1.177V52.34a4.999 4.999 0 01-4.994 4.993H5.327A4.999 4.999 0 01.333 52.34V5.66A4.999 4.999 0 015.327.666zM27.976 4H5.326c-.915 0-1.66.744-1.66 1.66v46.68c0 .915.745 1.66 1.66 1.66h33.347c.916 0 1.66-.745 1.66-1.66V16.358L27.976 4zm-5.07 29.099a1.664 1.664 0 012.355 0l6.251 6.25c.153.154.276.339.36.54a1.69 1.69 0 010 1.276 1.679 1.679 0 01-.36.54l-6.251 6.251a1.663 1.663 0 01-2.356 0 1.667 1.667 0 010-2.357l3.405-3.405h-6.398c-4.362 0-7.911-3.55-7.911-7.91a1.666 1.666 0 113.333 0 4.584 4.584 0 004.578 4.577h6.398l-3.405-3.405a1.667 1.667 0 010-2.357zm-4.167-16.667a1.667 1.667 0 012.356 2.358l-3.405 3.404h6.398c4.362 0 7.91 3.552 7.91 7.914a1.666 1.666 0 11-3.332 0 4.585 4.585 0 00-4.578-4.58H17.69l3.404 3.404a1.667 1.667 0 01-2.355 2.358l-6.251-6.251a1.679 1.679 0 01-.36-.54 1.69 1.69 0 010-1.276c.084-.202.206-.386.36-.54z" /></defs><use fill-rule="evenodd" xlink:href="#icon-postpaid_a" /></symbol><symbol viewBox="0 0 44 58" id="icon-prepaid"><defs><path id="icon-prepaid_a" d="M28.667.666c.442 0 .866.176 1.177.49l13.334 13.333c.313.31.489.735.489 1.177V52.34a4.999 4.999 0 01-4.994 4.993H5.327A4.999 4.999 0 01.333 52.34V5.66A4.999 4.999 0 015.327.666zM27.976 4H5.326c-.915 0-1.66.744-1.66 1.66v46.68c0 .915.745 1.66 1.66 1.66h33.347c.916 0 1.66-.745 1.66-1.66V16.358L27.976 4zm-6.614 19.017a1.69 1.69 0 011.276 0c.202.084.387.207.54.36l8.333 8.333a1.667 1.667 0 01-2.355 2.358l-5.49-5.489v18.198a1.667 1.667 0 01-3.332 0V28.579l-5.49 5.489a1.667 1.667 0 01-2.356-2.358h.001l8.333-8.333c.154-.153.338-.276.54-.36z" /></defs><use fill-rule="evenodd" xlink:href="#icon-prepaid_a" /></symbol><symbol viewBox="0 0 26 26" id="icon-roaming"><defs><path id="icon-roaming_a" d="M24.97 25.97c-.247.247-.5.48-.756.698-.115-.177-.352-.455-1.056-1.07-.375-.343-.455-.561-.46-.561a.752.752 0 01.182-.556l1-1c.736-.735.674-1.385.54-1.75-.084-.333-.342-.736-1.054-.95a.868.868 0 00-.098-.022l-.934-.147c-.117-.021-.297-.08-.498-.33-.16-.2-.236-.39-.236-.582a.748.748 0 00-.012-.133.696.696 0 01.077-.487 1.11 1.11 0 01.55-.427c.308-.118.695-.131 1.678-.055a.752.752 0 00.17-.007c.516-.08 1.095-.281 1.784-.626.99-.516 1.269-.63 1.343-.654a.731.731 0 00.095-.04c.295-.148.602-.263.917-.345.033.353.048.712.048 1.074 0 3.124-1.074 5.733-3.28 7.97zM17 29.25c-.374 0-.738-.012-1.088-.037-.023-.594-.01-1.162.036-1.698a.749.749 0 00-.28-.65c-.247-.2-.66-.386-1.368-.622-.63-.222-.768-.368-.815-.42-.008-.008-.198-.242-.392-1.327-.216-1.548.01-2.288.208-2.596.21-.283.604-.534 1.178-.753 1.369-.548 1.706-.713 1.807-.777.405-.202.73-.524.956-.933.458-.762.266-1.334.074-1.666-.261-.372-.767-.817-1.623-.817h-.013a15.364 15.364 0 01-2.527-.476.77.77 0 00-.203-.028c-.812 0-1.074-.282-1.172-.43-.366-.988-.415-1.066-.548-1.201-.511-.51-1.354-.45-1.904-.365a2.216 2.216 0 01-.376.01v-.614c0-.435-.158-1.242-1.164-1.743a2.977 2.977 0 00-.295-.156 10.92 10.92 0 011.54-1.92c1.125-1.125 2.376-1.963 3.733-2.502.029.114.064.228.105.34.083.36.112.776.085 1.207-.03.3-.11.76-.238 1.37a.719.719 0 00-.016.154c0 .64.124 1.234.379 1.785.325.649.79 1.078 1.385 1.277.213.07.579.136 1.636.088.583 0 .719.129.72.13.049.05.106.092.167.126l.078.113c.216.269.375.414.508.479.653.383 1.383.335 2.055-.132a.838.838 0 00.103-.086c.038-.038.194-.225.479-.594.144-.201.242-.273.279-.295a.75.75 0 00.18-.153c.614-.716 1.559-.93 2.964-.64.228.02.74.103 1.92.387.675.136 1.243.218 1.765.25.296.665.518 1.367.668 2.099a6.23 6.23 0 00-1.33.473c-.181.068-.54.226-1.491.722-.49.245-.91.402-1.25.466-.414-.03-.735-.045-.965-.045-.497 0-.91.066-1.254.195-.514.186-.938.514-1.288 1.019a2.2 2.2 0 00-.307 1.504c.015.515.205 1.003.563 1.45.383.479.855.77 1.419.873l.894.14a1.183 1.183 0 01-.157.189l-1.05 1.056c-.426.519-.616 1.087-.555 1.77.099.498.402.975.942 1.469.685.598.78.743.773.722.017.033.036.078.058.137-1.762 1.113-3.774 1.676-5.988 1.676zm-2.595-.28a10.079 10.079 0 01-3.315-1.36 11.091 11.091 0 01-2.296-1.885c.172-.483.402-.941.69-1.374.534-.845.656-1.645.369-2.364-.321-.854-.792-1.287-1.403-1.287h-1.1a.768.768 0 00-.106.008c-.415.059-.79.118-1.125.178A11.074 11.074 0 015.749 18c0-.755.065-1.502.189-2.212.09-.486.23-.982.432-1.527.1-.341.229-.672.385-.99.098.036.2.085.31.15.385.193.385.353.385.429v1c0 .104.022.207.064.303.278.628.93.899 1.999.789.336-.051.53-.045.614-.046.062.154.15.392.269.714a.785.785 0 00.057.12c.32.544.994 1.188 2.39 1.219.839.229 1.74.396 2.757.5.228 0 .348.052.414.103a1.21 1.21 0 01-.07.135.842.842 0 01-.377.369c-.05.029-.315.165-1.633.693-.844.322-1.443.73-1.862 1.292-.54.83-.692 2.028-.46 3.69.202 1.13.45 1.792.76 2.097.26.314.714.578 1.44.834.274.09.47.164.607.222-.017.353-.022.716-.014 1.087zm-6.18-5.436a7.405 7.405 0 00-.496.864 10.69 10.69 0 01-1.127-2.074c.247-.041.514-.083.802-.124H8.3c.035.056.089.157.153.328.038.097.158.395-.228 1.006zM17 6.75c3.124 0 5.733 1.074 7.97 3.28a12.572 12.572 0 011.42 1.686 14.993 14.993 0 01-.514-.096c-1.01-.243-1.7-.38-2.022-.404-1.834-.381-3.264-.025-4.25 1.063a2.557 2.557 0 00-.597.61l-.304.39c-.205.122-.295.07-.337.05-.03-.026-.066-.068-.072-.068-.001 0-.002 0-.001.003-.152-.253-.324-.432-.522-.544-.381-.315-.931-.47-1.7-.47h-.005c-.893.04-1.117-.01-1.128-.01-.075-.026-.306-.103-.507-.504a2.602 2.602 0 01-.23-1.062c.13-.631.21-1.106.248-1.476a5.764 5.764 0 00-.142-1.75 2.644 2.644 0 01-.107-.375A11.82 11.82 0 0117 6.75zm11.47 5.515l-.005-.012c-.6-1.162-1.418-2.266-2.438-3.287C23.526 6.5 20.49 5.25 17 5.25c-1.33 0-2.594.178-3.75.528l-.023.006c-1.942.568-3.71 1.639-5.257 3.186a12.15 12.15 0 00-2.278 3.119 7.434 7.434 0 00-.743 1.697 10.352 10.352 0 00-.488 1.736A14.573 14.573 0 004.25 18c0 1.408.215 2.75.633 3.972 0 .003.002.007.004.01.496 1.59 1.335 3.073 2.485 4.396l.01.012a12.536 12.536 0 002.914 2.492c1.37.878 2.917 1.45 4.597 1.703a.84.84 0 00.237.063c.588.068 1.217.102 1.87.102 2.71 0 5.16-.752 7.28-2.235l.005-.004a13.48 13.48 0 001.749-1.484C28.5 24.526 29.75 21.49 29.75 18c0-.701-.053-1.394-.158-2.058a11.75 11.75 0 00-1.121-3.677z" /></defs><use fill-rule="evenodd" transform="translate(-4 -5)" xlink:href="#icon-roaming_a" /></symbol><symbol viewBox="0 0 150 150" id="icon-search"><defs></defs><g fill="none" fill-rule="nonzero"><path fill="url(#icon-search_a)" d="M62 71.78c6.61 14.168 23.451 20.296 37.62 13.69 14.169-6.608 20.3-23.449 13.695-37.618-6.604-14.17-23.444-20.304-37.615-13.702C61.54 40.771 55.412 57.605 62 71.78zm14.46-36a26.49 26.49 0 1111.25 50.54 26.67 26.67 0 01-9.08-1.61 26.5 26.5 0 01-2.14-48.91l-.03-.02z" /><path fill="url(#icon-search_b)" d="M63.68 71a26.33 26.33 0 0014.95 13.7 26.5 26.5 0 0033.07-36.1 26.49 26.49 0 10-48 22.4h-.02zm24-34.69c11.987-.018 22.065 8.992 23.383 20.907 1.318 11.914-6.546 22.91-18.247 25.513-11.7 2.602-23.485-4.023-27.341-15.372-3.857-11.35 1.45-23.783 12.315-28.848a23.23 23.23 0 019.86-2.19l.03-.01z" /><path fill="url(#icon-search_c)" d="M118.11 114.25a6.39 6.39 0 00-.22-4.93l-8-17.19-11.7 5.45 8 17.19a6.45 6.45 0 0011.91-.52h.01z" /><path fill="url(#icon-search_d)" d="M120.61 108.05L112 89.5l-3.09-6.62a31.35 31.35 0 007.2-36.3c-6.567-14.085-22.47-21.222-37.358-16.764-14.888 4.457-24.253 19.16-21.998 34.536C59.008 79.728 72.199 91.124 87.74 91.12a31.74 31.74 0 004-.27l3.09 6.64 8.65 18.51a9.39 9.39 0 005.34 4.88 9.272 9.272 0 003.23.58 9.449 9.449 0 008.56-13.45v.04zm-10.77 10a6.41 6.41 0 01-3.64-3.33l-8-17.19 11.69-5.45 8 17.19a6.44 6.44 0 01-8 8.78h-.05zM87.65 31.5c14.447-.02 26.59 10.84 28.178 25.2 1.587 14.36-7.893 27.61-21.995 30.745-14.102 3.135-28.303-4.85-32.95-18.53-4.646-13.679 1.753-28.662 14.847-34.765a28.36 28.36 0 0111.92-2.65zm19.12 54l1.84 4-11.69 5.36-1.84-4 11.69-5.36z" /><path fill="url(#icon-search_e)" d="M82.39 59a3 3 0 001.45-4 1.57 1.57 0 01.12-1.3 3.74 3.74 0 011.8-1.7c1.56-.72 3.14-.36 3.52.45a1.88 1.88 0 01-.39 1.77 9.71 9.71 0 00-.77 9.92 3 3 0 105.43-2.53 3.86 3.86 0 01.16-3.83 7.67 7.67 0 001-7.87c-1.84-3.94-7-5.44-11.49-3.35a9.67 9.67 0 00-4.67 4.51 7.46 7.46 0 00-.15 6.45A3 3 0 0082.39 59z" /><path fill="url(#icon-search_f)" d="M92.52 68.9a3 3 0 00-.88 2.1 3 3 0 00.51 1.67A3 3 0 0097.64 71a3 3 0 00-.88-2.12 3.1 3.1 0 00-4.24.02z" /><path fill="url(#icon-search_g)" d="M61.82 94.11l2.24.53a15 15 0 00-6.3-5l-.87.64a16.43 16.43 0 014.93 3.83z" /><path fill="url(#icon-search_h)" d="M66.94 103.43c0-2.14-.463-4.256-1.36-6.2a1.48 1.48 0 01-1.13.54h-.2A16.31 16.31 0 0166 105a1.5 1.5 0 01-3 0 13.43 13.43 0 00-2.8-8.2l-3.95-.94a1.48 1.48 0 01-1.11-1.8 1.51 1.51 0 01.72-1 13.36 13.36 0 00-6.36-1.6c-.491.005-.982.035-1.47.09L44 98.5a1.47 1.47 0 01-1.3.75 1.58 1.58 0 01-.75-.19 1.51 1.51 0 01-.55-2l2.47-4.29a13.48 13.48 0 00-5.4 4.46 14.67 14.67 0 00-1.39 6.25c0 .36 0 .72.05 1.08l2.87 2.07a1.5 1.5 0 01.32 2.1 1.53 1.53 0 01-1.21.61 1.49 1.49 0 01-.89-.3h-.07a14.93 14.93 0 002 3.41l2.17-.64a1.501 1.501 0 01.85 2.88l-.71.21a14.87 14.87 0 009.59 3.5 15.68 15.68 0 002.49-.22 1.7 1.7 0 01-.4-.44 1.5 1.5 0 01.56-2 16.3 16.3 0 006-6.78 1.5 1.5 0 112.75 1.19 19.61 19.61 0 01-5.74 7.16 14.93 14.93 0 009.23-13.88zm-19 13.72a1.49 1.49 0 01-1.21-2.37l1-1.43L45 110.5a1.5 1.5 0 112.17-2.07l2.34 2.44.58-.81a1.5 1.5 0 112.44 1.74l-3.39 4.73a1.48 1.48 0 01-1.23.62h.03zm8.64-10.66h-7.1a1.5 1.5 0 010-3h7.1a1.5 1.5 0 010 3zm2-7a1.5 1.5 0 01-2.08.42L53.56 98l-7.46 4.37a1.5 1.5 0 11-1.51-2.59L52.86 95a1.5 1.5 0 011.58 0l3.65 2.42a1.5 1.5 0 01.42 2.1l.07-.03z" /><path fill="url(#icon-search_i)" d="M54 88.65a15 15 0 00-2-.16c-.43 0-.86 0-1.28.07a16.2 16.2 0 012.8.46l.48-.37z" /><path fill="url(#icon-search_j)" d="M63.45 110.06a1.5 1.5 0 10-2.75-1.19 16.3 16.3 0 01-6 6.78 1.5 1.5 0 00-.56 2 1.7 1.7 0 00.4.44c.26.204.58.316.91.32a1.55 1.55 0 00.74-.2c.54-.3 1.062-.634 1.56-1a19.61 19.61 0 005.7-7.15z" /><path fill="url(#icon-search_k)" d="M58.09 97.44L54.44 95a1.5 1.5 0 00-1.58 0l-8.27 4.84a1.5 1.5 0 001.51 2.59L53.56 98l2.87 1.9a1.5 1.5 0 001.66-2.5v.04z" /><path fill="url(#icon-search_l)" d="M44.14 112.78a1.5 1.5 0 00-1.86-1l-2.17.64-1.59.47a13.45 13.45 0 01-2.32-5.33l2 1.45h.07c.257.193.569.299.89.3a1.53 1.53 0 001.21-.61 1.5 1.5 0 00-.32-2.1l-2.88-2.12-1.17-.79a13.31 13.31 0 012.45-6.51 13.48 13.48 0 015.4-4.46L41.4 97a1.51 1.51 0 00.55 2c.23.125.488.19.75.19a1.47 1.47 0 001.3-.69l4-6.92a14.5 14.5 0 011.47-.09 13.36 13.36 0 016.36 1.6 1.51 1.51 0 00-.72 1 1.48 1.48 0 001.11 1.8l3.95.94A13.43 13.43 0 0163 105a1.5 1.5 0 003 0 16.31 16.31 0 00-1.7-7.24h.2a1.48 1.48 0 001.13-.54 1.34 1.34 0 00.33-.61 1.51 1.51 0 00-1.11-1.81l-.74-.17-2.24-.53a16.43 16.43 0 00-4.93-3.82l.87-.64 1-.71A1.507 1.507 0 0057 86.52l-3 2.13-.51.37a16.2 16.2 0 00-2.8-.46h-1l1-1.75a1.5 1.5 0 10-2.6-1.5l-1.67 2.91-1.7-1.55a1.5 1.5 0 10-2 2.22l.83.75a16.55 16.55 0 00-10.3 12.09l-2.4-1.77a1.5 1.5 0 10-1.78 2.41l3.93 2.79a16.4 16.4 0 002.55 8.62l-1.48.43a1.5 1.5 0 00.42 2.94c.145 0 .29-.02.43-.06l2.61-.77a16.4 16.4 0 0012 5.17 1.5 1.5 0 000-3 13.39 13.39 0 01-8.65-3.15l1.62-.48.71-.21a1.5 1.5 0 00.93-1.87z" /><path fill="url(#icon-search_m)" d="M56.55 103.49h-7.1a1.5 1.5 0 000 3h7.1a1.5 1.5 0 000-3z" /><path fill="url(#icon-search_n)" d="M49.13 116.53l3.39-4.73a1.5 1.5 0 10-2.44-1.74l-.58.81-2.34-2.44A1.5 1.5 0 1045 110.5l2.73 2.85-1 1.43a1.5 1.5 0 002.43 1.75h-.03z" /><path fill="url(#icon-search_o)" d="M67.27 110.87a1.5 1.5 0 00-2 .73l-2.19 4.73a1.5 1.5 0 001.36 2.14 1.5 1.5 0 001.36-.87l2.2-4.74a1.49 1.49 0 00-.73-1.99z" /><path fill="url(#icon-search_p)" d="M72.63 113.62a1.5 1.5 0 10-2.52 1.63l1.63 2.52a1.49 1.49 0 002.07.45 1.51 1.51 0 00.45-2.08l-1.63-2.52z" /><path fill="url(#icon-search_q)" d="M72.7 110.45a1.53 1.53 0 001.06-.44 1.51 1.51 0 000-2.12l-3-3a1.5 1.5 0 00-2.12 2.12l3 3c.28.282.662.44 1.06.44z" /><path fill="url(#icon-search_r)" d="M83.15 113.05l-2.93 1.27a1.49 1.49 0 00-.78 2c.231.55.773.906 1.37.9a1.43 1.43 0 00.6-.12l2.93-1.26a1.503 1.503 0 10-1.19-2.76v-.03z" /></g></symbol><linearGradient id="icon-search_a" x1="17.32%" x2="83.449%" y1="17.26%" y2="83.405%"><stop offset="0%" stop-color="#9ED9EA" /><stop offset="100%" stop-color="#E9A7E0" /></linearGradient><linearGradient id="icon-search_b" x1="15.696%" x2="85.427%" y1="15.786%" y2="85.87%"><stop offset="0%" stop-color="#00A9CE" /><stop offset="100%" stop-color="#C724B1" /></linearGradient><linearGradient id="icon-search_c" x1="-98.919%" x2="10.486%" y1="-148.172%" y2="-6.144%"><stop offset="0%" stop-color="#9ED9EA" /><stop offset="100%" stop-color="#E9A7E0" /></linearGradient><linearGradient id="icon-search_d" x1="35.084%" x2="63.291%" y1="13.741%" y2="54.036%"><stop offset="0%" stop-color="#00A9CE" /><stop offset="100%" stop-color="#C724B1" /></linearGradient><linearGradient id="icon-search_e" x1="-12.722%" x2="145.779%" y1="-33.888%" y2="149.638%"><stop offset="0%" stop-color="#00A9CE" /><stop offset="100%" stop-color="#C724B1" /></linearGradient><linearGradient id="icon-search_f" x1="-410.333%" x2="214%" y1="-406.072%" y2="212.604%"><stop offset="0%" stop-color="#00A9CE" /><stop offset="100%" stop-color="#C724B1" /></linearGradient><linearGradient id="icon-search_g" x1="-245.607%" x2="276.848%" y1="-154.245%" y2="210.089%"><stop offset="0%" stop-color="#9ED9EA" /><stop offset="100%" stop-color="#E9A7E0" /></linearGradient><linearGradient id="icon-search_h" x1="-26.423%" x2="99.028%" y1="-21.576%" y2="91.604%"><stop offset="0%" stop-color="#9ED9EA" /><stop offset="100%" stop-color="#E9A7E0" /></linearGradient><linearGradient id="icon-search_i" x1="-414.939%" x2="727.134%" y1="-93.469%" y2="254.724%"><stop offset="0%" stop-color="#9ED9EA" /><stop offset="100%" stop-color="#E9A7E0" /></linearGradient><linearGradient id="icon-search_j" x1="-218.767%" x2="108.084%" y1="-242.08%" y2="114.269%"><stop offset="0%" stop-color="#00A9CE" /><stop offset="100%" stop-color="#C724B1" /></linearGradient><linearGradient id="icon-search_k" x1="-87.308%" x2="164.627%" y1="-17.923%" y2="114.759%"><stop offset="0%" stop-color="#00A9CE" /><stop offset="100%" stop-color="#C724B1" /></linearGradient><linearGradient id="icon-search_l" x1="-2.549%" x2="97.075%" y1="-2.357%" y2="95.49%"><stop offset="0%" stop-color="#00A9CE" /><stop offset="100%" stop-color="#C724B1" /></linearGradient><linearGradient id="icon-search_m" x1="-185.446%" x2="185.446%" y1="-19.934%" y2="90.231%"><stop offset="0%" stop-color="#00A9CE" /><stop offset="100%" stop-color="#C724B1" /></linearGradient><linearGradient id="icon-search_n" x1="-199.366%" x2="169.833%" y1="-226.424%" y2="180.875%"><stop offset="0%" stop-color="#00A9CE" /><stop offset="100%" stop-color="#C724B1" /></linearGradient><linearGradient id="icon-search_o" x1="-252.554%" x2="72.661%" y1="-400.24%" y2="83.597%"><stop offset="0%" stop-color="#00A9CE" /><stop offset="100%" stop-color="#C724B1" /></linearGradient><linearGradient id="icon-search_p" x1="-536.823%" x2="30.851%" y1="-650.731%" y2="27.065%"><stop offset="0%" stop-color="#00A9CE" /><stop offset="100%" stop-color="#C724B1" /></linearGradient><linearGradient id="icon-search_q" x1="-521.816%" x2="105.865%" y1="-522.381%" y2="105.87%"><stop offset="0%" stop-color="#9ED9EA" /><stop offset="100%" stop-color="#E9A7E0" /></linearGradient><linearGradient id="icon-search_r" x1="-680.912%" x2="-50.843%" y1="-474.414%" y2="-22.592%"><stop offset="0%" stop-color="#9ED9EA" /><stop offset="100%" stop-color="#E9A7E0" /></linearGradient><symbol viewBox="0 0 16 18" id="icon-secure-checkout"><g fill="#000" fill-rule="nonzero"><path d="M8 17.532h-.057C5.257 16.714.286 13.851.286 10.636V2.513c0-.117.057-.234.228-.292L7.943 0h.114l7.429 2.22c.114.06.228.176.228.293v8.123c0 3.215-4.971 6.078-7.657 6.896H8zM.857 2.747v7.89c0 2.63 4.172 5.376 7.143 6.311 2.971-.935 7.143-3.682 7.143-6.312v-7.89L8 .585.857 2.747z" /><path d="M8 8.766H2.286C2.114 8.766 2 8.65 2 8.474V3.799c0-.117.057-.234.229-.293l5.714-1.753c.057 0 .171 0 .228.059.058.058.115.117.115.233v6.429c0 .175-.115.292-.286.292zm-5.429-.584h5.143V2.455L2.571 4.032v4.15z" /><path d="M8 15.78c-.057 0-.114 0-.171-.06-.058-.058-.115-.116-.115-.233V8.474c0-.175.115-.292.286-.292h5.714c.172 0 .286.117.286.292v2.338c0 1.87-2.971 3.915-5.886 4.967H8zm.286-7.014v6.312c2.571-.994 5.143-2.805 5.143-4.266V8.766H8.286z" /></g></symbol><symbol viewBox="0 0 50 50" id="icon-services"><defs><path id="icon-services_a" d="M35.803 0C38.118 0 40 1.893 40 4.218v5.939a1.25 1.25 0 01-2.5 0V4.218c0-.948-.76-1.718-1.697-1.718H14.197A1.71 1.71 0 0012.5 4.218v41.564a1.71 1.71 0 001.697 1.718h21.606a1.71 1.71 0 001.697-1.718v-5.939a1.25 1.25 0 012.5 0v5.939C40 48.107 38.118 50 35.803 50H14.197C11.882 50 10 48.107 10 45.782V4.218C10 1.893 11.882 0 14.197 0zM24.116 41.934c.467-.467 1.3-.467 1.767 0a1.267 1.267 0 01.367.881c0 .334-.134.634-.367.885a1.254 1.254 0 01-1.767 0 1.285 1.285 0 01-.366-.885 1.267 1.267 0 01.367-.882zm6.926-10.5c.69 0 1.25.56 1.25 1.25v2.083a1.25 1.25 0 01-2.5 0v-2.083c0-.69.56-1.25 1.25-1.25zm5.139-6.25c.69 0 1.25.56 1.25 1.25v8.334a1.25 1.25 0 01-2.5 0v-8.333c0-.69.56-1.25 1.25-1.25zm5.138-6.25c.69 0 1.25.56 1.25 1.25v14.584a1.25 1.25 0 01-2.5 0V20.185c0-.69.56-1.25 1.25-1.25zm5.14-6.25c.69 0 1.25.56 1.25 1.25v20.834a1.25 1.25 0 01-2.5 0V13.935c0-.69.56-1.25 1.25-1.25zM29.166 5.939a1.25 1.25 0 010 2.5h-8.334a1.25 1.25 0 010-2.5z" /></defs><use fill-rule="evenodd" xlink:href="#icon-services_a" /></symbol><symbol viewBox="0 0 30 28" id="icon-star"><path fill="#FFF" fill-rule="evenodd" d="M15 23l-8.208 4.061a1 1 0 01-1.427-1.075l1.551-8.514-6.515-5.977a1 1 0 01.54-1.728l9.063-1.24L14.114.69a1 1 0 011.772 0l4.11 7.839 9.063 1.24a1 1 0 01.54 1.727l-6.515 5.977 1.551 8.514a1 1 0 01-1.427 1.075L15 23z" /></symbol><symbol viewBox="0 0 32 32" id="icon-twitter"><defs></defs><path fill="url(#icon-twitter_a)" fill-rule="evenodd" d="M148 0c8.837 0 16 7.163 16 16s-7.163 16-16 16-16-7.163-16-16 7.163-16 16-16zm2.703 10.751c-1.399.508-2.283 1.82-2.182 3.254l.033.554-.56-.068c-2.036-.26-3.816-1.141-5.326-2.621l-.74-.735-.19.542c-.402 1.21-.145 2.486.695 3.345.447.474.346.542-.426.26-.268-.09-.503-.158-.526-.125-.078.08.19 1.108.403 1.514.291.565.884 1.12 1.533 1.447l.549.26-.65.01c-.626 0-.648.012-.581.25.224.734 1.108 1.513 2.093 1.852l.693.238-.604.361a6.301 6.301 0 01-3 .836c-.503.012-.917.057-.917.09 0 .114 1.365.746 2.16.995 2.384.734 5.215.418 7.342-.836 1.51-.893 3.021-2.667 3.727-4.384.38-.915.76-2.587.76-3.39 0-.52.034-.587.66-1.209.37-.361.717-.757.784-.87.112-.214.101-.214-.47-.022-.951.339-1.085.294-.615-.215.347-.361.76-1.017.76-1.209 0-.034-.167.023-.357.125-.202.113-.65.282-.985.384l-.605.192-.548-.373c-.302-.203-.727-.43-.951-.497-.571-.158-1.444-.136-1.959.045z" transform="translate(-132)" /></symbol><linearGradient id="icon-twitter_a" x1="100%" x2="0%" y1="50%" y2="50%"><stop offset="0%" stop-color="#703FBD" /><stop offset="100%" stop-color="#5B53C1" /></linearGradient><symbol viewBox="0 0 118 24" id="icon-wegotyou"><g fill="none" fill-rule="evenodd"><rect width="118" height="24" fill="#00205B" rx="12" /><path fill="#FFF" fill-rule="nonzero" d="M11.572 18l.432-2.61h2.34l-.45 2.61h2.484l.45-2.61h1.962a6.53 6.53 0 00.189-.459c.09-.234.135-.495.135-.783 0-.384-.102-.672-.306-.864-.204-.192-.546-.288-1.026-.288h-.576l.45-2.574h1.98c.036-.06.099-.21.189-.45.09-.24.135-.498.135-.774 0-.384-.102-.675-.306-.873-.204-.198-.546-.297-1.026-.297h-.576l.432-2.466a7.408 7.408 0 00-.405-.135 2.504 2.504 0 00-.747-.099c-.384 0-.708.081-.972.243-.264.162-.426.447-.486.855l-.27 1.602h-2.358l.432-2.466a6.919 6.919 0 00-.414-.135 2.525 2.525 0 00-.738-.099c-.384 0-.708.081-.972.243-.264.162-.432.447-.504.855l-.27 1.602H8.8a6.53 6.53 0 00-.189.459c-.09.234-.135.495-.135.783 0 .384.102.672.306.864.204.192.546.288 1.026.288h.558l-.432 2.574h-1.98c-.036.06-.099.21-.189.45-.09.24-.135.498-.135.774 0 .384.102.675.306.873.204.198.546.297 1.026.297h.558L9.088 18h2.484zm3.186-5.004H12.4l.432-2.574h2.358l-.432 2.574zM27.93 18c.108-.264.24-.651.396-1.161.156-.51.324-1.074.504-1.692.18-.618.357-1.251.531-1.899l.477-1.782c.12.54.267 1.134.441 1.782.174.648.345 1.281.513 1.899.168.618.33 1.182.486 1.692.156.51.288.897.396 1.161h3.204a142.93 142.93 0 002.358-6.228A84.528 84.528 0 0039 6.192a4.779 4.779 0 01-.189-.108 3.354 3.354 0 00-.936-.36 2.94 2.94 0 00-.657-.072c-.54 0-.939.108-1.197.324-.258.216-.453.582-.585 1.098-.108.42-.24.915-.396 1.485-.156.57-.324 1.17-.504 1.8a95.45 95.45 0 01-1.152 3.735c-.156-.552-.327-1.2-.513-1.944l-.567-2.259a138.448 138.448 0 01-.918-3.861 4.586 4.586 0 00-.531-.216 2.773 2.773 0 00-.963-.162c-.54 0-.924.12-1.152.36-.228.24-.39.552-.486.936a1344.537 1344.537 0 00-.873 3.42c-.162.636-.33 1.275-.504 1.917a99.424 99.424 0 01-.513 1.827c-.18-.528-.387-1.158-.621-1.89-.234-.732-.468-1.479-.702-2.241-.234-.762-.453-1.497-.657-2.205a46.34 46.34 0 01-.486-1.8 3.522 3.522 0 00-.477-.189c-.258-.09-.579-.135-.963-.135-.48 0-.843.114-1.089.342-.246.228-.369.546-.369.954 0 .36.06.729.18 1.107l.414 1.305c.072.228.177.543.315.945.138.402.297.858.477 1.368l.576 1.629a144.961 144.961 0 001.233 3.348c.198.516.381.966.549 1.35h3.186zm14.912.252a8.72 8.72 0 002.664-.396c.336-.108.615-.216.837-.324.222-.108.381-.192.477-.252l-1.008-2.016a1.09 1.09 0 01-.234.126c-.132.06-.3.12-.504.18-.204.06-.444.117-.72.171a4.59 4.59 0 01-.882.081c-.408 0-.756-.036-1.044-.108a2.372 2.372 0 01-.711-.288 1.62 1.62 0 01-.432-.387.983.983 0 01-.189-.423h.63c1.068 0 1.947-.066 2.637-.198s1.236-.321 1.638-.567c.402-.246.681-.546.837-.9.156-.354.234-.753.234-1.197 0-.408-.093-.804-.279-1.188a3.13 3.13 0 00-.81-1.026 3.941 3.941 0 00-1.305-.711c-.516-.174-1.098-.261-1.746-.261-.696 0-1.344.117-1.944.351-.6.234-1.122.561-1.566.981-.444.42-.792.93-1.044 1.53S38 12.69 38 13.41c0 .768.126 1.452.378 2.052.252.6.597 1.107 1.035 1.521.438.414.951.729 1.539.945a5.438 5.438 0 001.89.324zm-1.89-5.508c.012-.24.06-.477.144-.711.084-.234.207-.441.369-.621a1.89 1.89 0 01.603-.441c.24-.114.522-.171.846-.171.456 0 .798.093 1.026.279.228.186.342.405.342.657 0 .12-.024.24-.072.36-.048.12-.18.228-.396.324-.216.096-.546.174-.99.234-.444.06-1.068.09-1.872.09zm14.244 5.58c.492 0 .963-.015 1.413-.045.45-.03.855-.063 1.215-.099a17.52 17.52 0 001.332-.18v-5.562c0-1.14-.594-1.71-1.782-1.71h-3.42a3.32 3.32 0 00-.234.531 2.49 2.49 0 00-.144.873c0 .444.117.777.351.999.234.222.627.333 1.179.333h1.098v2.052a3.404 3.404 0 01-.423.036c-.234.012-.459.018-.675.018-1.26 0-2.253-.3-2.979-.9-.726-.6-1.089-1.542-1.089-2.826 0-.576.087-1.098.261-1.566a3.35 3.35 0 01.747-1.197c.324-.33.72-.585 1.188-.765.468-.18.996-.27 1.584-.27.42 0 .801.036 1.143.108.342.072.642.168.9.288.258.12.48.249.666.387.186.138.339.267.459.387.084-.06.192-.147.324-.261.132-.114.258-.246.378-.396.12-.15.225-.324.315-.522s.135-.411.135-.639c0-.492-.252-.894-.756-1.206a5.738 5.738 0 00-.504-.279 4.369 4.369 0 00-.747-.279 8.444 8.444 0 00-2.367-.306c-.984 0-1.896.15-2.736.45-.84.3-1.566.732-2.178 1.296a5.881 5.881 0 00-1.431 2.052c-.342.804-.513 1.71-.513 2.718 0 1.08.177 2.025.531 2.835.354.81.852 1.485 1.494 2.025.642.54 1.41.945 2.304 1.215.894.27 1.881.405 2.961.405zm10.356-.072a5.28 5.28 0 001.971-.369 5.116 5.116 0 001.62-1.017 4.648 4.648 0 001.485-3.456 4.648 4.648 0 00-1.485-3.456 5.116 5.116 0 00-1.62-1.017 5.28 5.28 0 00-1.971-.369 5.26 5.26 0 00-1.98.369 5.141 5.141 0 00-1.611 1.017 4.648 4.648 0 00-1.485 3.456 4.648 4.648 0 001.485 3.456c.462.432.999.771 1.611 1.017a5.26 5.26 0 001.98.369zm0-2.592a2.03 2.03 0 01-1.512-.639 2.006 2.006 0 01-.441-.711 2.577 2.577 0 01-.153-.9c0-.324.051-.624.153-.9.102-.276.249-.513.441-.711a2.03 2.03 0 011.512-.639c.3 0 .579.057.837.171.258.114.483.27.675.468.192.198.339.435.441.711.102.276.153.576.153.9 0 .324-.051.624-.153.9a2.006 2.006 0 01-.441.711 2.129 2.129 0 01-.675.468 2.048 2.048 0 01-.837.171zm9.716 2.592c.396 0 .774-.039 1.134-.117.36-.078.684-.171.972-.279.288-.108.534-.222.738-.342.204-.12.36-.228.468-.324l-1.134-1.98c-.12.072-.318.159-.594.261a2.631 2.631 0 01-.918.153c-.168 0-.333-.015-.495-.045a1.004 1.004 0 01-.432-.189 1.13 1.13 0 01-.315-.387c-.084-.162-.126-.381-.126-.657V11.52h3.204c.048-.084.12-.261.216-.531s.144-.561.144-.873c0-.432-.114-.756-.342-.972-.228-.216-.612-.324-1.152-.324h-2.07V6.39c-.072-.024-.24-.075-.504-.153a3.107 3.107 0 00-.882-.117c-.456 0-.822.096-1.098.288-.276.192-.414.522-.414.99v7.578c0 .996.318 1.791.954 2.385.636.594 1.518.891 2.646.891zM85.32 18v-4.554c.228-.312.495-.675.801-1.089.306-.414.621-.852.945-1.314.324-.462.648-.933.972-1.413.324-.48.627-.933.909-1.359a29.4 29.4 0 00.729-1.152c.204-.342.354-.615.45-.819a2.224 2.224 0 00-.567-.378 3.171 3.171 0 00-.513-.189 2.25 2.25 0 00-.612-.081c-.276 0-.516.036-.72.108a2.098 2.098 0 00-.531.27c-.15.108-.276.228-.378.36a6.437 6.437 0 00-.261.36l-.621.972c-.222.348-.45.702-.684 1.062-.234.36-.468.708-.702 1.044-.234.336-.459.648-.675.936a37.381 37.381 0 01-.774-1.08c-.3-.432-.609-.879-.927-1.341A109.32 109.32 0 0180.55 5.94a2.897 2.897 0 00-.441-.171 2.725 2.725 0 00-.855-.117c-.384 0-.711.099-.981.297-.27.198-.405.507-.405.927 0 .18.042.378.126.594.084.216.189.435.315.657.126.222.264.435.414.639.15.204.285.39.405.558.156.216.357.486.603.81l.801 1.053a90.573 90.573 0 001.782 2.259V18h3.006zm7.424.252a5.28 5.28 0 001.971-.369 5.116 5.116 0 001.62-1.017 4.648 4.648 0 001.485-3.456 4.648 4.648 0 00-1.485-3.456 5.116 5.116 0 00-1.62-1.017 5.28 5.28 0 00-1.971-.369 5.26 5.26 0 00-1.98.369 5.141 5.141 0 00-1.611 1.017 4.648 4.648 0 00-1.485 3.456 4.648 4.648 0 001.485 3.456c.462.432.999.771 1.611 1.017a5.26 5.26 0 001.98.369zm0-2.592a2.03 2.03 0 01-1.512-.639 2.006 2.006 0 01-.441-.711 2.577 2.577 0 01-.153-.9c0-.324.051-.624.153-.9.102-.276.249-.513.441-.711a2.03 2.03 0 011.512-.639c.3 0 .579.057.837.171.258.114.483.27.675.468.192.198.339.435.441.711.102.276.153.576.153.9 0 .324-.051.624-.153.9a2.006 2.006 0 01-.441.711 2.129 2.129 0 01-.675.468 2.048 2.048 0 01-.837.171zm10.514 2.592a6.34 6.34 0 001.818-.252 4.192 4.192 0 001.458-.747c.408-.33.729-.744.963-1.242.234-.498.351-1.083.351-1.755V9.09c-.072-.024-.24-.075-.504-.153a3.107 3.107 0 00-.882-.117c-.456 0-.822.096-1.098.288-.276.192-.414.522-.414.99v3.618c0 1.248-.564 1.872-1.692 1.872-1.128 0-1.692-.624-1.692-1.872V9.09c-.072-.024-.24-.075-.504-.153a3.107 3.107 0 00-.882-.117c-.456 0-.822.096-1.098.288-.276.192-.414.522-.414.99v4.158c0 .672.117 1.257.351 1.755.234.498.555.912.963 1.242.408.33.894.579 1.458.747a6.34 6.34 0 001.818.252z" /><path fill="#00205B" fill-opacity=".4" d="M7 5h13v14H7z" /></g></symbol><symbol viewBox="0 0 120 24" id="icon-wegotyou-ar"><g fill="none" fill-rule="evenodd"><rect width="120" height="24" fill="#00205B" rx="12" /><path fill="#FFF" fill-rule="nonzero" d="M104.572 18l.432-2.61h2.34l-.45 2.61h2.484l.45-2.61h1.962a6.53 6.53 0 00.189-.459c.09-.234.135-.495.135-.783 0-.384-.102-.672-.306-.864-.204-.192-.546-.288-1.026-.288h-.576l.45-2.574h1.98c.036-.06.099-.21.189-.45.09-.24.135-.498.135-.774 0-.384-.102-.675-.306-.873-.204-.198-.546-.297-1.026-.297h-.576l.432-2.466a7.408 7.408 0 00-.405-.135 2.504 2.504 0 00-.747-.099c-.384 0-.708.081-.972.243-.264.162-.426.447-.486.855l-.27 1.602h-2.358l.432-2.466a6.919 6.919 0 00-.414-.135 2.525 2.525 0 00-.738-.099c-.384 0-.708.081-.972.243-.264.162-.432.447-.504.855l-.27 1.602h-1.98a6.53 6.53 0 00-.189.459c-.09.234-.135.495-.135.783 0 .384.102.672.306.864.204.192.546.288 1.026.288h.558l-.432 2.574h-1.98c-.036.06-.099.21-.189.45-.09.24-.135.498-.135.774 0 .384.102.675.306.873.204.198.546.297 1.026.297h.558l-.432 2.61h2.484zm3.186-5.004H105.4l.432-2.574h2.358l-.432 2.574z" /><path fill="#00205B" fill-opacity=".4" d="M100 5h13v14h-13z" /><path fill="#FFF" fill-rule="nonzero" d="M96.907 5.236a1.3 1.3 0 00.954-.396 1.3 1.3 0 00.396-.954c0-.384-.132-.702-.396-.954a1.332 1.332 0 00-.954-.378c-.384 0-.702.126-.954.378s-.378.57-.378.954c0 .372.126.69.378.954s.57.396.954.396zM93.379 16c.756 0 1.437-.075 2.043-.225.606-.15 1.119-.396 1.539-.738.42-.342.741-.786.963-1.332.222-.546.333-1.215.333-2.007v-4.5A2.775 2.775 0 0097.708 7a2.837 2.837 0 00-.765-.108c-.54 0-.933.135-1.179.405s-.369.621-.369 1.053v3.186c0 .72-.171 1.224-.513 1.512-.342.288-.885.432-1.629.432h-.45V16h.576zm-.036 0v-2.52h-2.538v-1.476c0-.612-.105-1.224-.315-1.836a4.48 4.48 0 00-1.008-1.647c-.462-.486-1.062-.882-1.8-1.188-.738-.306-1.641-.459-2.709-.459-.396 0-.762.021-1.098.063a3.231 3.231 0 00-.846.207c-.348.144-.576.33-.684.558a1.55 1.55 0 00-.162.666c0 .252.042.474.126.666.084.192.18.366.288.522.204-.036.483-.075.837-.117a9.396 9.396 0 011.107-.063c.708 0 1.284.087 1.728.261.444.174.789.393 1.035.657.246.264.414.558.504.882.09.324.135.63.135.918v1.386h-7.128V16h12.528zM72.949 6.64a1.3 1.3 0 00.954-.396 1.3 1.3 0 00.396-.954c0-.384-.132-.702-.396-.954a1.332 1.332 0 00-.954-.378c-.384 0-.702.126-.954.378s-.378.57-.378.954c0 .372.126.69.378.954s.57.396.954.396zm.27 13.878c1.464 0 2.661-.387 3.591-1.161.93-.774 1.515-1.893 1.755-3.357h2.79v-2.52h-2.664v-6.3a2.744 2.744 0 00-.594-.207 3.282 3.282 0 00-1.314-.027c-.18.036-.342.099-.486.189a.938.938 0 00-.342.387 1.403 1.403 0 00-.126.63v6.246c0 .732-.081 1.329-.243 1.791-.162.462-.369.822-.621 1.08a1.99 1.99 0 01-.855.531 3.257 3.257 0 01-.945.144c-.864 0-1.527-.267-1.989-.801-.462-.534-.693-1.263-.693-2.187 0-.42.045-.828.135-1.224.09-.396.207-.798.351-1.206-.528-.36-1.074-.54-1.638-.54-.252 0-.489.051-.711.153-.222.102-.417.315-.585.639-.096.18-.174.381-.234.603a6.808 6.808 0 00-.216 1.269 5.72 5.72 0 00.306 2.367c.216.63.555 1.206 1.017 1.728.462.522 1.047.948 1.755 1.278.708.33 1.56.495 2.556.495zm-6.408-2.196V17.26h-9v1.062h9zm-15.21 2.142c.852 0 1.596-.132 2.232-.396a4.51 4.51 0 001.593-1.08 4.38 4.38 0 00.954-1.629c.21-.63.315-1.305.315-2.025V11.77c0-.72-.12-1.374-.36-1.962a4.561 4.561 0 00-.999-1.521 4.47 4.47 0 00-1.512-.99 5.044 5.044 0 00-1.899-.351c-.636 0-1.242.102-1.818.306a4.642 4.642 0 00-1.53.891c-.444.39-.798.873-1.062 1.449-.264.576-.396 1.23-.396 1.962 0 .66.111 1.263.333 1.809.222.546.546 1.014.972 1.404.426.39.948.693 1.566.909.618.216 1.323.324 2.115.324h1.8c0 .336-.066.633-.198.891a1.765 1.765 0 01-.549.639 2.666 2.666 0 01-.81.387 3.46 3.46 0 01-.981.135c-.144 0-.309-.006-.495-.018a5.88 5.88 0 01-.558-.063 9.07 9.07 0 01-.522-.099 4.175 4.175 0 01-.405-.108l-.612 2.196c.132.072.303.138.513.198a7.938 7.938 0 001.494.27c.282.024.555.036.819.036zm2.304-6.93h-1.602c-.756 0-1.341-.159-1.755-.477-.414-.318-.621-.819-.621-1.503 0-.696.195-1.227.585-1.593.39-.366.855-.549 1.395-.549.6 0 1.083.213 1.449.639.366.426.549 1.035.549 1.827v1.656zM40.315 16c.756 0 1.437-.075 2.043-.225.606-.15 1.119-.396 1.539-.738.42-.342.741-.786.963-1.332.222-.546.333-1.215.333-2.007v-4.5A2.775 2.775 0 0044.644 7a2.837 2.837 0 00-.765-.108c-.54 0-.933.135-1.179.405s-.369.621-.369 1.053v3.186c0 .72-.171 1.224-.513 1.512-.342.288-.885.432-1.629.432h-.45V16h.576zm.072 4.266a1.3 1.3 0 00.954-.396 1.3 1.3 0 00.396-.954c0-.384-.132-.702-.396-.954a1.332 1.332 0 00-.954-.378c-.384 0-.702.126-.954.378s-.378.57-.378.954c0 .372.126.69.378.954s.57.396.954.396zm3.366 0a1.3 1.3 0 00.954-.396 1.3 1.3 0 00.396-.954c0-.384-.132-.702-.396-.954a1.332 1.332 0 00-.954-.378c-.384 0-.702.126-.954.378s-.378.57-.378.954c0 .372.126.69.378.954s.57.396.954.396zM40.279 16v-2.52h-.486c-.744 0-1.287-.144-1.629-.432-.342-.288-.513-.792-.513-1.512V3.058a2.775 2.775 0 00-.549-.198 2.837 2.837 0 00-.765-.108c-.54 0-.933.135-1.179.405s-.369.621-.369 1.053v7.488c0 .792.111 1.461.333 2.007.222.546.543.99.963 1.332.42.342.933.588 1.539.738.606.15 1.287.225 2.043.225h.612zm-12.906 0c.828 0 1.578-.102 2.25-.306.672-.204 1.245-.498 1.719-.882s.84-.852 1.098-1.404c.258-.552.387-1.176.387-1.872 0-.552-.093-1.101-.279-1.647a4.05 4.05 0 00-.882-1.467c-.402-.432-.921-.78-1.557-1.044-.636-.264-1.41-.396-2.322-.396h-.162l3.762-3.15a2.178 2.178 0 00-.639-.756c-.282-.216-.651-.324-1.107-.324-.348 0-.654.075-.918.225-.264.15-.564.375-.9.675l-3.132 2.79a7.39 7.39 0 00-.873.909c-.21.27-.315.567-.315.891 0 .228.048.42.144.576.096.156.219.285.369.387.15.102.321.174.513.216.192.042.384.063.576.063h2.268c.828 0 1.458.192 1.89.576.432.384.648.87.648 1.458s-.216 1.062-.648 1.422c-.432.36-1.062.54-1.89.54h-5.31V16h5.31zm-16.47 4.014v-3.15c0-.324.09-.549.27-.675.18-.126.474-.189.882-.189h2.97c.348 0 .699-.03 1.053-.09a5.63 5.63 0 001.017-.27c.324-.12.621-.27.891-.45s.495-.396.675-.648c.12.384.357.723.711 1.017.354.294.885.441 1.593.441h1.638v-2.52h-1.242c-.444 0-.786-.09-1.026-.27-.24-.18-.36-.462-.36-.846v-.774c0-.672-.12-1.293-.36-1.863a4.53 4.53 0 00-.999-1.485 4.706 4.706 0 00-3.339-1.35c-.66 0-1.272.111-1.836.333a4.708 4.708 0 00-1.467.9 4.075 4.075 0 00-.972 1.341 3.92 3.92 0 00-.351 1.638c0 .504.084.969.252 1.395.168.426.408.801.72 1.125h-.81c-.396 0-.762.06-1.098.18a2.27 2.27 0 00-.873.558 2.584 2.584 0 00-.576.972c-.138.396-.207.87-.207 1.422v3.258h2.844zm4.41-6.336a2.03 2.03 0 01-.846-.171 1.952 1.952 0 01-.648-.468 2.07 2.07 0 01-.414-.693 2.456 2.456 0 01-.144-.846c0-.312.051-.6.153-.864.102-.264.246-.495.432-.693a1.94 1.94 0 01.657-.459c.252-.108.522-.162.81-.162a1.952 1.952 0 011.458.639 2.329 2.329 0 01.594 1.575c0 .312-.051.597-.153.855a2.003 2.003 0 01-1.089 1.125 2.034 2.034 0 01-.81.162z" /></g></symbol><symbol viewBox="0 0 22 22" id="icon-whatsapp"><path fill="#78BE20" fill-rule="evenodd" d="M16.471 13.23c-.317-.16-1.878-.927-2.169-1.033-.29-.106-.502-.159-.714.159-.212.318-.82 1.032-1.005 1.244-.186.212-.37.238-.688.08-.318-.16-1.34-.494-2.553-1.575-.944-.842-1.581-1.881-1.766-2.2-.185-.317-.02-.488.14-.647.142-.142.317-.37.475-.556.159-.185.212-.317.318-.53.105-.211.053-.396-.027-.555-.08-.159-.714-1.721-.979-2.356-.257-.62-.519-.536-.714-.545-.185-.01-.397-.012-.608-.012-.212 0-.556.08-.847.398-.29.317-1.11 1.085-1.11 2.647 0 1.562 1.137 3.071 1.295 3.283.16.212 2.239 3.417 5.423 4.792.758.327 1.35.522 1.81.669.76.241 1.453.207 2 .125.61-.09 1.878-.767 2.143-1.509.264-.741.264-1.376.185-1.509-.08-.132-.291-.211-.609-.37m-5.792 7.906h-.004c-1.895 0-3.754-.51-5.375-1.472l-.386-.228-3.996 1.048 1.066-3.896-.25-.4a10.528 10.528 0 01-1.615-5.617C.12 4.75 4.859.015 10.683.015c2.82 0 5.472 1.1 7.466 3.096a10.491 10.491 0 013.09 7.468c-.002 5.821-4.74 10.557-10.56 10.557" /></symbol><symbol viewBox="0 0 32 32" id="icon-youtube"><defs></defs><path fill="url(#icon-youtube_a)" fill-rule="evenodd" d="M60 0c8.837 0 16 7.163 16 16s-7.163 16-16 16-16-7.163-16-16S51.163 0 60 0zm.21 10.134h-.467c-.826.003-3.708.026-5.732.176-.333.04-1.06.044-1.708.738-.51.53-.677 1.731-.677 1.731s-.17 1.412-.17 2.823v1.323c0 1.412.17 2.823.17 2.823s.166 1.202.677 1.73c.649.696 1.5.674 1.88.747 1.28.125 5.268.17 5.747.175l.277-.001c.828-.005 3.712-.031 5.736-.181.333-.04 1.059-.044 1.707-.74.51-.528.678-1.73.678-1.73s.17-1.411.17-2.823v-1.323c0-1.411-.17-2.823-.17-2.823s-.167-1.201-.678-1.73c-.648-.695-1.374-.699-1.707-.74-2.024-.149-4.906-.172-5.733-.175zM58 14l4.536 2.459L58 18.9 58 14z" transform="translate(-44)" /></symbol><linearGradient id="icon-youtube_a" x1="100%" x2="0%" y1="50%" y2="50%"><stop offset="0%" stop-color="#3577C6" /><stop offset="100%" stop-color="#208BC9" /></linearGradient></defs><use id="icon-VAT-usage" xlink:href="#icon-VAT" class="sprite-symbol-usage" /><use id="icon-appgallery-usage" xlink:href="#icon-appgallery" class="sprite-symbol-usage" /><use id="icon-appointment-usage" xlink:href="#icon-appointment" class="sprite-symbol-usage" /><use id="icon-appstore-usage" xlink:href="#icon-appstore" class="sprite-symbol-usage" /><use id="icon-arrow-usage" xlink:href="#icon-arrow" class="sprite-symbol-usage" /><use id="icon-arrow-w-usage" xlink:href="#icon-arrow-w" class="sprite-symbol-usage" /><use id="icon-billing-payment-usage" xlink:href="#icon-billing-payment" class="sprite-symbol-usage" /><use id="icon-bulb-usage" xlink:href="#icon-bulb" class="sprite-symbol-usage" /><use id="icon-cart-usage" xlink:href="#icon-cart" class="sprite-symbol-usage" /><use id="icon-cart2-usage" xlink:href="#icon-cart2" class="sprite-symbol-usage" /><use id="icon-check-usage" xlink:href="#icon-check" class="sprite-symbol-usage" /><use id="icon-connectivity-usage" xlink:href="#icon-connectivity" class="sprite-symbol-usage" /><use id="icon-contract-usage" xlink:href="#icon-contract" class="sprite-symbol-usage" /><use id="icon-devices-usage" xlink:href="#icon-devices" class="sprite-symbol-usage" /><use id="icon-facebook-usage" xlink:href="#icon-facebook" class="sprite-symbol-usage" /><use id="icon-fixed-services-usage" xlink:href="#icon-fixed-services" class="sprite-symbol-usage" /><use id="icon-googleplay-usage" xlink:href="#icon-googleplay" class="sprite-symbol-usage" /><use id="icon-help-appointment-usage" xlink:href="#icon-help-appointment" class="sprite-symbol-usage" /><use id="icon-help-billing-usage" xlink:href="#icon-help-billing" class="sprite-symbol-usage" /><use id="icon-help-billing2-usage" xlink:href="#icon-help-billing2" class="sprite-symbol-usage" /><use id="icon-help-cart-usage" xlink:href="#icon-help-cart" class="sprite-symbol-usage" /><use id="icon-help-home-usage" xlink:href="#icon-help-home" class="sprite-symbol-usage" /><use id="icon-help-mobile-usage" xlink:href="#icon-help-mobile" class="sprite-symbol-usage" /><use id="icon-help-online-usage" xlink:href="#icon-help-online" class="sprite-symbol-usage" /><use id="icon-help-roaming-usage" xlink:href="#icon-help-roaming" class="sprite-symbol-usage" /><use id="icon-instagram-usage" xlink:href="#icon-instagram" class="sprite-symbol-usage" /><use id="icon-links-usage" xlink:href="#icon-links" class="sprite-symbol-usage" /><use id="icon-local-usage" xlink:href="#icon-local" class="sprite-symbol-usage" /><use id="icon-logo-usage" xlink:href="#icon-logo" class="sprite-symbol-usage" /><use id="icon-managed-services-usage" xlink:href="#icon-managed-services" class="sprite-symbol-usage" /><use id="icon-messenger-usage" xlink:href="#icon-messenger" class="sprite-symbol-usage" /><use id="icon-no-contract-usage" xlink:href="#icon-no-contract" class="sprite-symbol-usage" /><use id="icon-notification-usage" xlink:href="#icon-notification" class="sprite-symbol-usage" /><use id="icon-postpaid-usage" xlink:href="#icon-postpaid" class="sprite-symbol-usage" /><use id="icon-prepaid-usage" xlink:href="#icon-prepaid" class="sprite-symbol-usage" /><use id="icon-roaming-usage" xlink:href="#icon-roaming" class="sprite-symbol-usage" /><use id="icon-search-usage" xlink:href="#icon-search" class="sprite-symbol-usage" /><use id="icon-secure-checkout-usage" xlink:href="#icon-secure-checkout" class="sprite-symbol-usage" /><use id="icon-services-usage" xlink:href="#icon-services" class="sprite-symbol-usage" /><use id="icon-star-usage" xlink:href="#icon-star" class="sprite-symbol-usage" /><use id="icon-twitter-usage" xlink:href="#icon-twitter" class="sprite-symbol-usage" /><use id="icon-wegotyou-usage" xlink:href="#icon-wegotyou" class="sprite-symbol-usage" /><use id="icon-wegotyou-ar-usage" xlink:href="#icon-wegotyou-ar" class="sprite-symbol-usage" /><use id="icon-whatsapp-usage" xlink:href="#icon-whatsapp" class="sprite-symbol-usage" /><use id="icon-youtube-usage" xlink:href="#icon-youtube" class="sprite-symbol-usage" /></svg>